<?xml version="1.0" encoding="UTF-8" standalone="no"?>
<svg
   width="236.70399"
   height="31.476999"
   viewBox="0 0 236.70399 31.476999"
   version="1.1"
   id="svg103"
   xmlns="http://www.w3.org/2000/svg">
  <defs
     id="defs103" />
  <path
     d="M 1.259,0 H 0 v 31.47669 h 1.259 z"
     id="path1" />
  <path
     d="M 2.517998,0 H 1.888 v 31.47669 h 0.629998 z"
     id="path2" />
  <path
     d="m 4.406998,0 h -0.63 v 31.47669 h 0.63 z"
     id="path3" />
  <path
     d="m 7.553998,0 h -0.629 v 31.47669 h 0.629 z"
     id="path4" />
  <path
     d="m 9.442998,0 h -1.259 v 31.47669 h 1.259 z"
     id="path5" />
  <path
     d="m 12.589998,0 h -0.629 v 31.47669 h 0.629 z"
     id="path6" />
  <path
     d="m 14.478998,0 h -0.629 v 31.47669 h 0.629 z"
     id="path7" />
  <path
     d="m 16.367998,0 h -0.63 v 31.47669 h 0.63 z"
     id="path8" />
  <path
     d="m 18.255998,0 h -1.259 v 31.47669 h 1.259 z"
     id="path9" />
  <path
     d="m 21.403998,0 h -0.63 v 31.47669 h 0.63 z"
     id="path10" />
  <path
     d="m 24.551998,0 h -0.63 v 31.47669 h 0.63 z"
     id="path11" />
  <path
     d="m 26.439998,0 h -1.259 v 31.47669 h 1.259 z"
     id="path12" />
  <path
     d="m 28.328998,0 h -0.63 v 31.47669 h 0.63 z"
     id="path13" />
  <path
     d="m 30.216998,0 h -1.259 v 31.47669 h 1.259 z"
     id="path14" />
  <path
     d="m 32.105998,0 h -0.629 v 31.47669 h 0.629 z"
     id="path15" />
  <path
     d="m 35.253998,0 h -0.63 v 31.47669 h 0.63 z"
     id="path16" />
  <path
     d="m 37.141998,0 h -0.629 v 31.47669 h 0.629 z"
     id="path17" />
  <path
     d="m 40.918998,0 h -1.259 v 31.47669 h 1.259 z"
     id="path18" />
  <path
     d="m 42.178998,0 h -0.63 v 31.47669 h 0.63 z"
     id="path19" />
  <path
     d="m 46.584998,0 h -2.518 v 31.47669 h 2.518 z"
     id="path20" />
  <path
     d="m 47.843998,0 h -0.629 v 31.47669 h 0.629 z"
     id="path21" />
  <path
     d="m 49.102998,0 h -0.629 v 31.47669 h 0.629 z"
     id="path22" />
  <path
     d="m 53.509998,0 h -2.518 v 31.47669 h 2.518 z"
     id="path23" />
  <path
     d="m 54.768998,0 h -0.629 v 31.47669 h 0.629 z"
     id="path24" />
  <path
     d="m 56.657998,0 h -1.259 v 31.47669 h 1.259 z"
     id="path25" />
  <path
     d="m 59.805998,0 h -0.63 v 31.47669 h 0.63 z"
     id="path26" />
  <path
     d="m 61.693998,0 h -0.63 v 31.47669 h 0.63 z"
     id="path27" />
  <path
     d="m 62.952998,0 h -0.629 v 31.47669 h 0.629 z"
     id="path28" />
  <path
     d="m 65.470998,0 h -1.259 v 31.47669 h 1.259 z"
     id="path29" />
  <path
     d="m 68.618998,0 h -1.889 v 31.47669 h 1.889 z"
     id="path30" />
  <path
     d="m 69.877998,0 h -0.63 v 31.47669 h 0.63 z"
     id="path31" />
  <path
     d="m 73.025998,0 h -0.63 v 31.47669 h 0.63 z"
     id="path32" />
  <path
     d="m 74.913998,0 h -1.259 v 31.47669 h 1.259 z"
     id="path33" />
  <path
     d="m 76.802998,0 h -0.63 v 31.47669 h 0.63 z"
     id="path34" />
  <path
     d="m 81.208998,0 h -2.518 v 31.47669 h 2.518 z"
     id="path35" />
  <path
     d="m 82.468998,0 h -0.63 v 31.47669 h 0.63 z"
     id="path36" />
  <path
     d="m 85.615998,0 h -2.518 v 31.47669 h 2.518 z"
     id="path37" />
  <path
     d="m 88.133998,0 h -1.888 v 31.47669 h 1.888 z"
     id="path38" />
  <path
     d="m 89.392998,0 h -0.629 v 31.47669 h 0.629 z"
     id="path39" />
  <path
     d="m 90.652998,0 h -0.63 v 31.47669 h 0.63 z"
     id="path40" />
  <path
     d="m 93.170998,0 h -1.889 v 31.47669 h 1.889 z"
     id="path41" />
  <path
     d="m 95.688998,0 h -1.259 v 31.47669 h 1.259 z"
     id="path42" />
  <path
     d="m 97.576998,0 h -0.629 v 31.47669 h 0.629 z"
     id="path43" />
  <path
     d="M 100.725,0 H 98.206998 V 31.47669 H 100.725 Z"
     id="path44" />
  <path
     d="m 102.614,0 h -0.63 v 31.47669 h 0.63 z"
     id="path45" />
  <path
     d="m 104.502,0 h -0.629 v 31.47669 h 0.629 z"
     id="path46" />
  <path
     d="m 108.28,0 h -1.26 v 31.47669 h 1.26 z"
     id="path47" />
  <path
     d="m 109.539,0 h -0.63 v 31.47669 h 0.63 z"
     id="path48" />
  <path
     d="m 113.316,0 h -2.518 v 31.47669 h 2.518 z"
     id="path49" />
  <path
     d="m 115.834,0 h -1.889 v 31.47669 h 1.889 z"
     id="path50" />
  <path
     d="m 117.093,0 h -0.629 v 31.47669 h 0.629 z"
     id="path51" />
  <path
     d="m 118.352,0 h -0.629 v 31.47669 h 0.629 z"
     id="path52" />
  <path
     d="m 122.759,0 h -2.518 v 31.47669 h 2.518 z"
     id="path53" />
  <path
     d="m 124.018,0 h -0.63 v 31.47669 h 0.63 z"
     id="path54" />
  <path
     d="m 125.906,0 h -1.259 v 31.47669 h 1.259 z"
     id="path55" />
  <path
     d="m 129.054,0 h -0.629 v 31.47669 h 0.629 z"
     id="path56" />
  <path
     d="m 130.313,0 h -0.629 v 31.47669 h 0.629 z"
     id="path57" />
  <path
     d="m 132.831,0 h -1.259 v 31.47669 h 1.259 z"
     id="path58" />
  <path
     d="m 134.72,0 h -1.259 v 31.47669 h 1.259 z"
     id="path59" />
  <path
     d="M 137.8677,0 H 135.35 v 31.47669 h 2.5177 z"
     id="path60" />
  <path
     d="m 139.1266,0 h -0.6296 v 31.47669 h 0.6296 z"
     id="path61" />
  <path
     d="m 142.9038,0 h -1.2591 v 31.47669 h 1.2591 z"
     id="path62" />
  <path
     d="m 144.1629,0 h -0.6295 v 31.47669 h 0.6295 z"
     id="path63" />
  <path
     d="m 146.6811,0 h -1.259 v 31.47669 h 1.259 z"
     id="path64" />
  <path
     d="m 149.8287,0 h -0.6295 v 31.47669 h 0.6295 z"
     id="path65" />
  <path
     d="m 151.7174,0 h -0.6296 v 31.47669 h 0.6296 z"
     id="path66" />
  <path
     d="m 152.9764,0 h -0.6295 v 31.47669 h 0.6295 z"
     id="path67" />
  <path
     d="m 157.3831,0 h -2.5182 v 31.47669 h 2.5182 z"
     id="path68" />
  <path
     d="m 158.6422,0 h -0.6296 v 31.47669 h 0.6296 z"
     id="path69" />
  <path
     d="m 160.5307,0 h -1.259 v 31.47669 h 1.259 z"
     id="path70" />
  <path
     d="m 163.6786,0 h -0.6296 v 31.47669 h 0.6296 z"
     id="path71" />
  <path
     d="m 164.9376,0 h -0.6295 v 31.47669 h 0.6295 z"
     id="path72" />
  <path
     d="m 166.8263,0 h -0.6296 v 31.47669 h 0.6296 z"
     id="path73" />
  <path
     d="m 168.7148,0 h -1.259 v 31.47669 h 1.259 z"
     id="path74" />
  <path
     d="m 171.8624,0 h -0.6295 v 31.47669 h 0.6295 z"
     id="path75" />
  <path
     d="m 173.7511,0 h -0.6296 v 31.47669 h 0.6296 z"
     id="path76" />
  <path
     d="m 175.6396,0 h -1.259 v 31.47669 h 1.259 z"
     id="path77" />
  <path
     d="m 177.5282,0 h -0.6296 v 31.47669 h 0.6296 z"
     id="path78" />
  <path
     d="m 180.6759,0 h -0.6296 v 31.47669 h 0.6296 z"
     id="path79" />
  <path
     d="m 182.5645,0 h -0.6295 v 31.47669 h 0.6295 z"
     id="path80" />
  <path
     d="m 186.3418,0 h -2.5181 v 31.47669 h 2.5181 z"
     id="path81" />
  <path
     d="m 187.6007,0 h -0.6296 v 31.47669 h 0.6296 z"
     id="path82" />
  <path
     d="m 189.4895,0 h -1.2591 v 31.47669 h 1.2591 z"
     id="path83" />
  <path
     d="m 191.378,0 h -0.6295 v 31.47669 h 0.6295 z"
     id="path84" />
  <path
     d="m 195.1553,0 h -1.2591 v 31.47669 h 1.2591 z"
     id="path85" />
  <path
     d="m 198.3028,0 h -0.6295 v 31.47669 h 0.6295 z"
     id="path86" />
  <path
     d="m 199.5619,0 h -0.6296 v 31.47669 h 0.6296 z"
     id="path87" />
  <path
     d="m 201.4505,0 h -0.6295 v 31.47669 h 0.6295 z"
     id="path88" />
  <path
     d="m 204.5982,0 h -0.6295 v 31.47669 h 0.6295 z"
     id="path89" />
  <path
     d="m 206.4868,0 h -1.2591 v 31.47669 h 1.2591 z"
     id="path90" />
  <path
     d="m 208.3753,0 h -0.6295 v 31.47669 h 0.6295 z"
     id="path91" />
  <path
     d="m 212.1526,0 h -1.2591 v 31.47669 h 1.2591 z"
     id="path92" />
  <path
     d="m 213.4117,0 h -0.6295 v 31.47669 h 0.6295 z"
     id="path93" />
  <path
     d="m 215.3001,0 h -0.6295 v 31.47669 h 0.6295 z"
     id="path94" />
  <path
     d="m 217.1888,0 h -0.6295 v 31.47669 h 0.6295 z"
     id="path95" />
  <path
     d="m 219.0774,0 h -1.2591 v 31.47669 h 1.2591 z"
     id="path96" />
  <path
     d="m 222.2252,0 h -0.6295 v 31.47669 h 0.6295 z"
     id="path97" />
  <path
     d="m 224.7431,0 h -1.259 v 31.47669 h 1.259 z"
     id="path98" />
  <path
     d="m 227.26132,0 h -0.62952 v 31.47669 h 0.62952 z"
     id="path99" />
  <path
     d="m 229.77952,0 h -1.25906 v 31.47669 h 1.25906 z"
     id="path100" />
  <path
     d="m 233.55676,0 h -1.8886 v 31.47669 h 1.8886 z"
     id="path101" />
  <path
     d="m 234.81576,0 h -0.62953 v 31.47669 h 0.62953 z"
     id="path102" />
  <path
     d="m 236.70433,0 h -1.25907 v 31.47669 h 1.25907 z"
     id="path103" />
</svg>
