<?xml version="1.0" encoding="utf-8"?>
<!DOCTYPE svg PUBLIC "-//W3C//DTD SVG 1.1//EN" "http://www.w3.org/Graphics/SVG/1.1/DTD/svg11.dtd">
<svg version="1.1" id="Layer_1" xmlns="http://www.w3.org/2000/svg" xmlns:xlink="http://www.w3.org/1999/xlink" x="0px" y="0px"
width="957px" height="957px" viewBox="0 0 957 957" enable-background="new 0 0 957 957" xml:space="preserve">
<g transform="translate(58,58)"><g transform="translate(232,0) scale(0.058,0.058)"><g transform="" style="fill: rgb(241, 138, 78);">
<path d="M500,250c0,58.266,0,250,0,250s-170.194,0-250-0.012c-62.324,0.012-250,0-250,0s0-174.241,0-249.994
	C0.006,111.931,111.929,0,249.994,0C388.064,0,500,111.93,500,250z"/>
</g></g><g transform="translate(435,0) scale(0.058,0.058)"><g transform="" style="fill: rgb(241, 138, 78);">
<g>
	<path d="M0,500h500V0C223.861,0.001,0,223.854,0,500z"/>
</g>
</g></g><g transform="translate(464,0) scale(0.29,0.29)"><g transform="" style="fill: rgb(241, 138, 78);">
<rect width="100" height="100"/>
</g></g><g transform="translate(493,0) scale(0.29,0.29)"><g transform="" style="fill: rgb(241, 138, 78);">
<rect width="100" height="100"/>
</g></g><g transform="translate(522,0) scale(0.29,0.29)"><g transform="" style="fill: rgb(241, 138, 78);">
<rect width="100" height="100"/>
</g></g><g transform="translate(551,0) scale(0.29,0.29)"><g transform="" style="fill: rgb(241, 138, 78);">
<rect width="100" height="100"/>
</g></g><g transform="translate(580,0) scale(0.058,0.058)"><g transform="" style="fill: rgb(241, 138, 78);">
<path d="M250,500c-58.271,0-250,0-250,0s0-170.207,0-250C0,187.676,0,0,0,0s174.261,0,250,0c138.064,0,250,111.929,250,250
	C500,388.064,388.064,500,250,500z"/>
</g></g><g transform="translate(232,29) scale(0.058,0.058)"><g transform="" style="fill: rgb(241, 138, 78);">
<g>
	<path d="M500,500V0H0C0.001,276.142,223.853,500,500,500z"/>
</g>
</g></g><g transform="translate(261,29) scale(0.29,0.29)"><g transform="" style="fill: rgb(241, 138, 78);">
<rect width="100" height="100"/>
</g></g><g transform="translate(290,29) scale(0.29,0.29)"><g transform="" style="fill: rgb(241, 138, 78);">
<rect width="100" height="100"/>
</g></g><g transform="translate(319,29) scale(0.058,0.058)"><g transform="" style="fill: rgb(241, 138, 78);">
<path d="M250,500c-58.271,0-250,0-250,0s0-170.207,0-250C0,187.676,0,0,0,0s174.261,0,250,0c138.064,0,250,111.929,250,250
	C500,388.064,388.064,500,250,500z"/>
</g></g><g transform="translate(406,29) scale(0.058,0.058)"><g transform="" style="fill: rgb(241, 138, 78);">
<g>
	<path d="M0,500h500V0C223.861,0.001,0,223.854,0,500z"/>
</g>
</g></g><g transform="translate(435,29) scale(0.29,0.29)"><g transform="" style="fill: rgb(241, 138, 78);">
<rect width="100" height="100"/>
</g></g><g transform="translate(493,29) scale(0.058,0.058)"><g transform="" style="fill: rgb(241, 138, 78);">
<g>
	<path d="M500,500V0H0C0.001,276.142,223.853,500,500,500z"/>
</g>
</g></g><g transform="translate(522,29) scale(0.29,0.29)"><g transform="" style="fill: rgb(241, 138, 78);">
<rect width="100" height="100"/>
</g></g><g transform="translate(261,58) scale(0.058,0.058)"><g transform="" style="fill: rgb(241, 138, 78);">
<g>
	<path d="M500,500V0H0C0.001,276.142,223.853,500,500,500z"/>
</g>
</g></g><g transform="translate(290,58) scale(0.29,0.29)"><g transform="" style="fill: rgb(241, 138, 78);">
<rect width="100" height="100"/>
</g></g><g transform="translate(377,58) scale(0.058,0.058)"><g transform="" style="fill: rgb(241, 138, 78);">
<path d="M250,0c58.27,0,250,0,250,0s0,170.182,0,250c0,62.305,0,250,0,250s-174.219,0-250,0
	C111.881,500,0,388.021,0,250C0,111.963,111.881,0,250,0z"/>
</g></g><g transform="translate(406,58) scale(0.29,0.29)"><g transform="" style="fill: rgb(241, 138, 78);">
<rect width="100" height="100"/>
</g></g><g transform="translate(435,58) scale(0.058,0.058)"><g transform="" style="fill: rgb(241, 138, 78);">
<g>
	<path d="M500,0H0v500C276.142,500,500,276.142,500,0z"/>
</g>
</g></g><g transform="translate(522,58) scale(0.058,0.058)"><g transform="" style="fill: rgb(241, 138, 78);">
<g>
	<path d="M500,500V0H0C0.001,276.142,223.853,500,500,500z"/>
</g>
</g></g><g transform="translate(551,58) scale(0.058,0.058)"><g transform="" style="fill: rgb(241, 138, 78);">
<g>
	<path d="M0,0v500h500C500,223.853,276.142,0,0,0z"/>
</g>
</g></g><g transform="translate(232,87) scale(0.058,0.058)"><g transform="" style="fill: rgb(241, 138, 78);">
<path d="M250,0c138.077,0,250,111.93,250,250c0,138.077-111.923,250-250,250C111.93,500,0,388.077,0,250C0,111.93,111.93,0,250,0z"
	/>
</g></g><g transform="translate(290,87) scale(0.058,0.058)"><g transform="" style="fill: rgb(241, 138, 78);">
<g>
	<path d="M500,500V0H0C0.001,276.142,223.853,500,500,500z"/>
</g>
</g></g><g transform="translate(319,87) scale(0.058,0.058)"><g transform="" style="fill: rgb(241, 138, 78);">
<g>
	<path d="M0,0v500h500C500,223.853,276.142,0,0,0z"/>
</g>
</g></g><g transform="translate(493,87) scale(0.058,0.058)"><g transform="" style="fill: rgb(241, 138, 78);">
<path d="M250,0c138.077,0,250,111.93,250,250c0,138.077-111.923,250-250,250C111.93,500,0,388.077,0,250C0,111.93,111.93,0,250,0z"
	/>
</g></g><g transform="translate(551,87) scale(0.29,0.29)"><g transform="" style="fill: rgb(241, 138, 78);">
<rect width="100" height="100"/>
</g></g><g transform="translate(319,116) scale(0.29,0.29)"><g transform="" style="fill: rgb(241, 138, 78);">
<rect width="100" height="100"/>
</g></g><g transform="translate(348,116) scale(0.29,0.29)"><g transform="" style="fill: rgb(241, 138, 78);">
<rect width="100" height="100"/>
</g></g><g transform="translate(377,116) scale(0.058,0.058)"><g transform="" style="fill: rgb(241, 138, 78);">
<path d="M250,500c-58.271,0-250,0-250,0s0-170.207,0-250C0,187.676,0,0,0,0s174.261,0,250,0c138.064,0,250,111.929,250,250
	C500,388.064,388.064,500,250,500z"/>
</g></g><g transform="translate(551,116) scale(0.29,0.29)"><g transform="" style="fill: rgb(241, 138, 78);">
<rect width="100" height="100"/>
</g></g><g transform="translate(261,145) scale(0.058,0.058)"><g transform="" style="fill: rgb(241, 138, 78);">
<path d="M250,0c58.27,0,250,0,250,0s0,170.182,0,250c0,62.305,0,250,0,250s-174.219,0-250,0
	C111.881,500,0,388.021,0,250C0,111.963,111.881,0,250,0z"/>
</g></g><g transform="translate(290,145) scale(0.29,0.29)"><g transform="" style="fill: rgb(241, 138, 78);">
<rect width="100" height="100"/>
</g></g><g transform="translate(319,145) scale(0.29,0.29)"><g transform="" style="fill: rgb(241, 138, 78);">
<rect width="100" height="100"/>
</g></g><g transform="translate(348,145) scale(0.29,0.29)"><g transform="" style="fill: rgb(241, 138, 78);">
<rect width="100" height="100"/>
</g></g><g transform="translate(406,145) scale(0.058,0.058)"><g transform="" style="fill: rgb(241, 138, 78);">
<path d="M500,250c0,58.266,0,250,0,250s-170.194,0-250-0.012c-62.324,0.012-250,0-250,0s0-174.241,0-249.994
	C0.006,111.931,111.929,0,249.994,0C388.064,0,500,111.93,500,250z"/>
</g></g><g transform="translate(493,145) scale(0.058,0.058)"><g transform="" style="fill: rgb(241, 138, 78);">
<path d="M250,0c58.27,0,250,0,250,0s0,170.182,0,250c0,62.305,0,250,0,250s-174.219,0-250,0
	C111.881,500,0,388.021,0,250C0,111.963,111.881,0,250,0z"/>
</g></g><g transform="translate(522,145) scale(0.29,0.29)"><g transform="" style="fill: rgb(241, 138, 78);">
<rect width="100" height="100"/>
</g></g><g transform="translate(551,145) scale(0.29,0.29)"><g transform="" style="fill: rgb(241, 138, 78);">
<rect width="100" height="100"/>
</g></g><g transform="translate(580,145) scale(0.058,0.058)"><g transform="" style="fill: rgb(241, 138, 78);">
<g>
	<path d="M0,0v500h500C500,223.853,276.142,0,0,0z"/>
</g>
</g></g><g transform="translate(232,174) scale(0.058,0.058)"><g transform="" style="fill: rgb(241, 138, 78);">
<path d="M500,250c0,58.266,0,250,0,250s-170.194,0-250-0.012c-62.324,0.012-250,0-250,0s0-174.241,0-249.994
	C0.006,111.931,111.929,0,249.994,0C388.064,0,500,111.93,500,250z"/>
</g></g><g transform="translate(290,174) scale(0.29,0.29)"><g transform="" style="fill: rgb(241, 138, 78);">
<rect width="100" height="100"/>
</g></g><g transform="translate(348,174) scale(0.058,0.058)"><g transform="" style="fill: rgb(241, 138, 78);">
<path d="M0,250C0,191.729,0,0,0,0s170.201,0,250,0c62.324,0,250,0,250,0s0,174.261,0,250c0,138.064-111.936,250-250,250
	C111.929,500,0,388.064,0,250z"/>
</g></g><g transform="translate(406,174) scale(0.29,0.29)"><g transform="" style="fill: rgb(241, 138, 78);">
<rect width="100" height="100"/>
</g></g><g transform="translate(464,174) scale(0.058,0.058)"><g transform="" style="fill: rgb(241, 138, 78);">
<path d="M500,250c0,58.266,0,250,0,250s-170.194,0-250-0.012c-62.324,0.012-250,0-250,0s0-174.241,0-249.994
	C0.006,111.931,111.929,0,249.994,0C388.064,0,500,111.93,500,250z"/>
</g></g><g transform="translate(522,174) scale(0.29,0.29)"><g transform="" style="fill: rgb(241, 138, 78);">
<rect width="100" height="100"/>
</g></g><g transform="translate(580,174) scale(0.29,0.29)"><g transform="" style="fill: rgb(241, 138, 78);">
<rect width="100" height="100"/>
</g></g><g transform="translate(232,203) scale(0.058,0.058)"><g transform="" style="fill: rgb(241, 138, 78);">
<g>
	<path d="M500,500V0H0C0.001,276.142,223.853,500,500,500z"/>
</g>
</g></g><g transform="translate(261,203) scale(0.29,0.29)"><g transform="" style="fill: rgb(241, 138, 78);">
<rect width="100" height="100"/>
</g></g><g transform="translate(290,203) scale(0.058,0.058)"><g transform="" style="fill: rgb(241, 138, 78);">
<g>
	<path d="M500,0H0v500C276.142,500,500,276.142,500,0z"/>
</g>
</g></g><g transform="translate(377,203) scale(0.058,0.058)"><g transform="" style="fill: rgb(241, 138, 78);">
<g>
	<path d="M0,500h500V0C223.861,0.001,0,223.854,0,500z"/>
</g>
</g></g><g transform="translate(406,203) scale(0.29,0.29)"><g transform="" style="fill: rgb(241, 138, 78);">
<rect width="100" height="100"/>
</g></g><g transform="translate(435,203) scale(0.29,0.29)"><g transform="" style="fill: rgb(241, 138, 78);">
<rect width="100" height="100"/>
</g></g><g transform="translate(464,203) scale(0.29,0.29)"><g transform="" style="fill: rgb(241, 138, 78);">
<rect width="100" height="100"/>
</g></g><g transform="translate(493,203) scale(0.29,0.29)"><g transform="" style="fill: rgb(241, 138, 78);">
<rect width="100" height="100"/>
</g></g><g transform="translate(522,203) scale(0.29,0.29)"><g transform="" style="fill: rgb(241, 138, 78);">
<rect width="100" height="100"/>
</g></g><g transform="translate(551,203) scale(0.29,0.29)"><g transform="" style="fill: rgb(241, 138, 78);">
<rect width="100" height="100"/>
</g></g><g transform="translate(580,203) scale(0.29,0.29)"><g transform="" style="fill: rgb(241, 138, 78);">
<rect width="100" height="100"/>
</g></g><g transform="translate(0,232) scale(0.058,0.058)"><g transform="" style="fill: rgb(241, 138, 78);">
<path d="M250,0c138.077,0,250,111.93,250,250c0,138.077-111.923,250-250,250C111.93,500,0,388.077,0,250C0,111.93,111.93,0,250,0z"
	/>
</g></g><g transform="translate(58,232) scale(0.058,0.058)"><g transform="" style="fill: rgb(241, 138, 78);">
<g>
	<path d="M0,500h500V0C223.861,0.001,0,223.854,0,500z"/>
</g>
</g></g><g transform="translate(87,232) scale(0.058,0.058)"><g transform="" style="fill: rgb(241, 138, 78);">
<g>
	<path d="M0,0v500h500C500,223.853,276.142,0,0,0z"/>
</g>
</g></g><g transform="translate(145,232) scale(0.058,0.058)"><g transform="" style="fill: rgb(241, 138, 78);">
<path d="M250,0c58.27,0,250,0,250,0s0,170.182,0,250c0,62.305,0,250,0,250s-174.219,0-250,0
	C111.881,500,0,388.021,0,250C0,111.963,111.881,0,250,0z"/>
</g></g><g transform="translate(174,232) scale(0.29,0.29)"><g transform="" style="fill: rgb(241, 138, 78);">
<rect width="100" height="100"/>
</g></g><g transform="translate(203,232) scale(0.058,0.058)"><g transform="" style="fill: rgb(241, 138, 78);">
<path d="M250,500c-58.271,0-250,0-250,0s0-170.207,0-250C0,187.676,0,0,0,0s174.261,0,250,0c138.064,0,250,111.929,250,250
	C500,388.064,388.064,500,250,500z"/>
</g></g><g transform="translate(261,232) scale(0.29,0.29)"><g transform="" style="fill: rgb(241, 138, 78);">
<rect width="100" height="100"/>
</g></g><g transform="translate(319,232) scale(0.058,0.058)"><g transform="" style="fill: rgb(241, 138, 78);">
<path d="M250,0c58.27,0,250,0,250,0s0,170.182,0,250c0,62.305,0,250,0,250s-174.219,0-250,0
	C111.881,500,0,388.021,0,250C0,111.963,111.881,0,250,0z"/>
</g></g><g transform="translate(348,232) scale(0.29,0.29)"><g transform="" style="fill: rgb(241, 138, 78);">
<rect width="100" height="100"/>
</g></g><g transform="translate(377,232) scale(0.29,0.29)"><g transform="" style="fill: rgb(241, 138, 78);">
<rect width="100" height="100"/>
</g></g><g transform="translate(406,232) scale(0.29,0.29)"><g transform="" style="fill: rgb(241, 138, 78);">
<rect width="100" height="100"/>
</g></g><g transform="translate(435,232) scale(0.29,0.29)"><g transform="" style="fill: rgb(241, 138, 78);">
<rect width="100" height="100"/>
</g></g><g transform="translate(464,232) scale(0.29,0.29)"><g transform="" style="fill: rgb(241, 138, 78);">
<rect width="100" height="100"/>
</g></g><g transform="translate(493,232) scale(0.29,0.29)"><g transform="" style="fill: rgb(241, 138, 78);">
<rect width="100" height="100"/>
</g></g><g transform="translate(522,232) scale(0.29,0.29)"><g transform="" style="fill: rgb(241, 138, 78);">
<rect width="100" height="100"/>
</g></g><g transform="translate(551,232) scale(0.29,0.29)"><g transform="" style="fill: rgb(241, 138, 78);">
<rect width="100" height="100"/>
</g></g><g transform="translate(580,232) scale(0.29,0.29)"><g transform="" style="fill: rgb(241, 138, 78);">
<rect width="100" height="100"/>
</g></g><g transform="translate(638,232) scale(0.058,0.058)"><g transform="" style="fill: rgb(241, 138, 78);">
<path d="M500,250c0,58.266,0,250,0,250s-170.194,0-250-0.012c-62.324,0.012-250,0-250,0s0-174.241,0-249.994
	C0.006,111.931,111.929,0,249.994,0C388.064,0,500,111.93,500,250z"/>
</g></g><g transform="translate(725,232) scale(0.058,0.058)"><g transform="" style="fill: rgb(241, 138, 78);">
<path d="M250,0c138.077,0,250,111.93,250,250c0,138.077-111.923,250-250,250C111.93,500,0,388.077,0,250C0,111.93,111.93,0,250,0z"
	/>
</g></g><g transform="translate(783,232) scale(0.058,0.058)"><g transform="" style="fill: rgb(241, 138, 78);">
<path d="M250,0c58.27,0,250,0,250,0s0,170.182,0,250c0,62.305,0,250,0,250s-174.219,0-250,0
	C111.881,500,0,388.021,0,250C0,111.963,111.881,0,250,0z"/>
</g></g><g transform="translate(812,232) scale(0.058,0.058)"><g transform="" style="fill: rgb(241, 138, 78);">
<g>
	<path d="M0,0v500h500C500,223.853,276.142,0,0,0z"/>
</g>
</g></g><g transform="translate(29,261) scale(0.058,0.058)"><g transform="" style="fill: rgb(241, 138, 78);">
<path d="M250,0c58.27,0,250,0,250,0s0,170.182,0,250c0,62.305,0,250,0,250s-174.219,0-250,0
	C111.881,500,0,388.021,0,250C0,111.963,111.881,0,250,0z"/>
</g></g><g transform="translate(58,261) scale(0.29,0.29)"><g transform="" style="fill: rgb(241, 138, 78);">
<rect width="100" height="100"/>
</g></g><g transform="translate(87,261) scale(0.29,0.29)"><g transform="" style="fill: rgb(241, 138, 78);">
<rect width="100" height="100"/>
</g></g><g transform="translate(261,261) scale(0.29,0.29)"><g transform="" style="fill: rgb(241, 138, 78);">
<rect width="100" height="100"/>
</g></g><g transform="translate(290,261) scale(0.058,0.058)"><g transform="" style="fill: rgb(241, 138, 78);">
<path d="M250,500c-58.271,0-250,0-250,0s0-170.207,0-250C0,187.676,0,0,0,0s174.261,0,250,0c138.064,0,250,111.929,250,250
	C500,388.064,388.064,500,250,500z"/>
</g></g><g transform="translate(348,261) scale(0.29,0.29)"><g transform="" style="fill: rgb(241, 138, 78);">
<rect width="100" height="100"/>
</g></g><g transform="translate(493,261) scale(0.058,0.058)"><g transform="" style="fill: rgb(241, 138, 78);">
<g>
	<path d="M500,500V0H0C0.001,276.142,223.853,500,500,500z"/>
</g>
</g></g><g transform="translate(522,261) scale(0.29,0.29)"><g transform="" style="fill: rgb(241, 138, 78);">
<rect width="100" height="100"/>
</g></g><g transform="translate(551,261) scale(0.29,0.29)"><g transform="" style="fill: rgb(241, 138, 78);">
<rect width="100" height="100"/>
</g></g><g transform="translate(580,261) scale(0.29,0.29)"><g transform="" style="fill: rgb(241, 138, 78);">
<rect width="100" height="100"/>
</g></g><g transform="translate(609,261) scale(0.29,0.29)"><g transform="" style="fill: rgb(241, 138, 78);">
<rect width="100" height="100"/>
</g></g><g transform="translate(638,261) scale(0.29,0.29)"><g transform="" style="fill: rgb(241, 138, 78);">
<rect width="100" height="100"/>
</g></g><g transform="translate(667,261) scale(0.29,0.29)"><g transform="" style="fill: rgb(241, 138, 78);">
<rect width="100" height="100"/>
</g></g><g transform="translate(696,261) scale(0.058,0.058)"><g transform="" style="fill: rgb(241, 138, 78);">
<g>
	<path d="M0,0v500h500C500,223.853,276.142,0,0,0z"/>
</g>
</g></g><g transform="translate(812,261) scale(0.058,0.058)"><g transform="" style="fill: rgb(241, 138, 78);">
<path d="M0,250C0,191.729,0,0,0,0s170.201,0,250,0c62.324,0,250,0,250,0s0,174.261,0,250c0,138.064-111.936,250-250,250
	C111.929,500,0,388.064,0,250z"/>
</g></g><g transform="translate(87,290) scale(0.058,0.058)"><g transform="" style="fill: rgb(241, 138, 78);">
<path d="M0,250C0,191.729,0,0,0,0s170.201,0,250,0c62.324,0,250,0,250,0s0,174.261,0,250c0,138.064-111.936,250-250,250
	C111.929,500,0,388.064,0,250z"/>
</g></g><g transform="translate(174,290) scale(0.058,0.058)"><g transform="" style="fill: rgb(241, 138, 78);">
<path d="M250,0c58.27,0,250,0,250,0s0,170.182,0,250c0,62.305,0,250,0,250s-174.219,0-250,0
	C111.881,500,0,388.021,0,250C0,111.963,111.881,0,250,0z"/>
</g></g><g transform="translate(203,290) scale(0.058,0.058)"><g transform="" style="fill: rgb(241, 138, 78);">
<g>
	<path d="M0,0v500h500C500,223.853,276.142,0,0,0z"/>
</g>
</g></g><g transform="translate(261,290) scale(0.29,0.29)"><g transform="" style="fill: rgb(241, 138, 78);">
<rect width="100" height="100"/>
</g></g><g transform="translate(348,290) scale(0.29,0.29)"><g transform="" style="fill: rgb(241, 138, 78);">
<rect width="100" height="100"/>
</g></g><g transform="translate(406,290) scale(0.058,0.058)"><g transform="" style="fill: rgb(241, 138, 78);">
<path d="M500,250c0,58.266,0,250,0,250s-170.194,0-250-0.012c-62.324,0.012-250,0-250,0s0-174.241,0-249.994
	C0.006,111.931,111.929,0,249.994,0C388.064,0,500,111.93,500,250z"/>
</g></g><g transform="translate(464,290) scale(0.058,0.058)"><g transform="" style="fill: rgb(241, 138, 78);">
<path d="M250,0c138.077,0,250,111.93,250,250c0,138.077-111.923,250-250,250C111.93,500,0,388.077,0,250C0,111.93,111.93,0,250,0z"
	/>
</g></g><g transform="translate(522,290) scale(0.058,0.058)"><g transform="" style="fill: rgb(241, 138, 78);">
<path d="M0,250C0,191.729,0,0,0,0s170.201,0,250,0c62.324,0,250,0,250,0s0,174.261,0,250c0,138.064-111.936,250-250,250
	C111.929,500,0,388.064,0,250z"/>
</g></g><g transform="translate(580,290) scale(0.29,0.29)"><g transform="" style="fill: rgb(241, 138, 78);">
<rect width="100" height="100"/>
</g></g><g transform="translate(609,290) scale(0.29,0.29)"><g transform="" style="fill: rgb(241, 138, 78);">
<rect width="100" height="100"/>
</g></g><g transform="translate(667,290) scale(0.29,0.29)"><g transform="" style="fill: rgb(241, 138, 78);">
<rect width="100" height="100"/>
</g></g><g transform="translate(696,290) scale(0.058,0.058)"><g transform="" style="fill: rgb(241, 138, 78);">
<g>
	<path d="M500,0H0v500C276.142,500,500,276.142,500,0z"/>
</g>
</g></g><g transform="translate(754,290) scale(0.058,0.058)"><g transform="" style="fill: rgb(241, 138, 78);">
<path d="M250,0c58.27,0,250,0,250,0s0,170.182,0,250c0,62.305,0,250,0,250s-174.219,0-250,0
	C111.881,500,0,388.021,0,250C0,111.963,111.881,0,250,0z"/>
</g></g><g transform="translate(783,290) scale(0.058,0.058)"><g transform="" style="fill: rgb(241, 138, 78);">
<path d="M250,500c-58.271,0-250,0-250,0s0-170.207,0-250C0,187.676,0,0,0,0s174.261,0,250,0c138.064,0,250,111.929,250,250
	C500,388.064,388.064,500,250,500z"/>
</g></g><g transform="translate(203,319) scale(0.058,0.058)"><g transform="" style="fill: rgb(241, 138, 78);">
<g>
	<path d="M500,500V0H0C0.001,276.142,223.853,500,500,500z"/>
</g>
</g></g><g transform="translate(232,319) scale(0.29,0.29)"><g transform="" style="fill: rgb(241, 138, 78);">
<rect width="100" height="100"/>
</g></g><g transform="translate(261,319) scale(0.058,0.058)"><g transform="" style="fill: rgb(241, 138, 78);">
<g>
	<path d="M500,0H0v500C276.142,500,500,276.142,500,0z"/>
</g>
</g></g><g transform="translate(319,319) scale(0.058,0.058)"><g transform="" style="fill: rgb(241, 138, 78);">
<g>
	<path d="M0,500h500V0C223.861,0.001,0,223.854,0,500z"/>
</g>
</g></g><g transform="translate(348,319) scale(0.29,0.29)"><g transform="" style="fill: rgb(241, 138, 78);">
<rect width="100" height="100"/>
</g></g><g transform="translate(377,319) scale(0.29,0.29)"><g transform="" style="fill: rgb(241, 138, 78);">
<rect width="100" height="100"/>
</g></g><g transform="translate(406,319) scale(0.058,0.058)"><g transform="" style="fill: rgb(241, 138, 78);">
<g>
	<path d="M500,0H0v500C276.142,500,500,276.142,500,0z"/>
</g>
</g></g><g transform="translate(580,319) scale(0.058,0.058)"><g transform="" style="fill: rgb(241, 138, 78);">
<g>
	<path d="M500,500V0H0C0.001,276.142,223.853,500,500,500z"/>
</g>
</g></g><g transform="translate(609,319) scale(0.29,0.29)"><g transform="" style="fill: rgb(241, 138, 78);">
<rect width="100" height="100"/>
</g></g><g transform="translate(638,319) scale(0.29,0.29)"><g transform="" style="fill: rgb(241, 138, 78);">
<rect width="100" height="100"/>
</g></g><g transform="translate(667,319) scale(0.058,0.058)"><g transform="" style="fill: rgb(241, 138, 78);">
<g>
	<path d="M500,0H0v500C276.142,500,500,276.142,500,0z"/>
</g>
</g></g><g transform="translate(812,319) scale(0.058,0.058)"><g transform="" style="fill: rgb(241, 138, 78);">
<path d="M250,0c138.077,0,250,111.93,250,250c0,138.077-111.923,250-250,250C111.93,500,0,388.077,0,250C0,111.93,111.93,0,250,0z"
	/>
</g></g><g transform="translate(29,348) scale(0.058,0.058)"><g transform="" style="fill: rgb(241, 138, 78);">
<path d="M250,0c58.27,0,250,0,250,0s0,170.182,0,250c0,62.305,0,250,0,250s-174.219,0-250,0
	C111.881,500,0,388.021,0,250C0,111.963,111.881,0,250,0z"/>
</g></g><g transform="translate(58,348) scale(0.058,0.058)"><g transform="" style="fill: rgb(241, 138, 78);">
<g>
	<path d="M0,0v500h500C500,223.853,276.142,0,0,0z"/>
</g>
</g></g><g transform="translate(116,348) scale(0.058,0.058)"><g transform="" style="fill: rgb(241, 138, 78);">
<path d="M250,0c138.077,0,250,111.93,250,250c0,138.077-111.923,250-250,250C111.93,500,0,388.077,0,250C0,111.93,111.93,0,250,0z"
	/>
</g></g><g transform="translate(174,348) scale(0.058,0.058)"><g transform="" style="fill: rgb(241, 138, 78);">
<path d="M250,0c138.077,0,250,111.93,250,250c0,138.077-111.923,250-250,250C111.93,500,0,388.077,0,250C0,111.93,111.93,0,250,0z"
	/>
</g></g><g transform="translate(290,348) scale(0.058,0.058)"><g transform="" style="fill: rgb(241, 138, 78);">
<g>
	<path d="M0,500h500V0C223.861,0.001,0,223.854,0,500z"/>
</g>
</g></g><g transform="translate(319,348) scale(0.29,0.29)"><g transform="" style="fill: rgb(241, 138, 78);">
<rect width="100" height="100"/>
</g></g><g transform="translate(435,348) scale(0.058,0.058)"><g transform="" style="fill: rgb(241, 138, 78);">
<g>
	<path d="M0,500h500V0C223.861,0.001,0,223.854,0,500z"/>
</g>
</g></g><g transform="translate(464,348) scale(0.29,0.29)"><g transform="" style="fill: rgb(241, 138, 78);">
<rect width="100" height="100"/>
</g></g><g transform="translate(493,348) scale(0.058,0.058)"><g transform="" style="fill: rgb(241, 138, 78);">
<path d="M250,500c-58.271,0-250,0-250,0s0-170.207,0-250C0,187.676,0,0,0,0s174.261,0,250,0c138.064,0,250,111.929,250,250
	C500,388.064,388.064,500,250,500z"/>
</g></g><g transform="translate(551,348) scale(0.058,0.058)"><g transform="" style="fill: rgb(241, 138, 78);">
<path d="M500,250c0,58.266,0,250,0,250s-170.194,0-250-0.012c-62.324,0.012-250,0-250,0s0-174.241,0-249.994
	C0.006,111.931,111.929,0,249.994,0C388.064,0,500,111.93,500,250z"/>
</g></g><g transform="translate(725,348) scale(0.058,0.058)"><g transform="" style="fill: rgb(241, 138, 78);">
<path d="M250,0c58.27,0,250,0,250,0s0,170.182,0,250c0,62.305,0,250,0,250s-174.219,0-250,0
	C111.881,500,0,388.021,0,250C0,111.963,111.881,0,250,0z"/>
</g></g><g transform="translate(754,348) scale(0.058,0.058)"><g transform="" style="fill: rgb(241, 138, 78);">
<g>
	<path d="M0,0v500h500C500,223.853,276.142,0,0,0z"/>
</g>
</g></g><g transform="translate(0,377) scale(0.058,0.058)"><g transform="" style="fill: rgb(241, 138, 78);">
<path d="M500,250c0,58.266,0,250,0,250s-170.194,0-250-0.012c-62.324,0.012-250,0-250,0s0-174.241,0-249.994
	C0.006,111.931,111.929,0,249.994,0C388.064,0,500,111.93,500,250z"/>
</g></g><g transform="translate(58,377) scale(0.058,0.058)"><g transform="" style="fill: rgb(241, 138, 78);">
<path d="M0,250C0,191.729,0,0,0,0s170.201,0,250,0c62.324,0,250,0,250,0s0,174.261,0,250c0,138.064-111.936,250-250,250
	C111.929,500,0,388.064,0,250z"/>
</g></g><g transform="translate(290,377) scale(0.058,0.058)"><g transform="" style="fill: rgb(241, 138, 78);">
<g>
	<path d="M500,500V0H0C0.001,276.142,223.853,500,500,500z"/>
</g>
</g></g><g transform="translate(319,377) scale(0.29,0.29)"><g transform="" style="fill: rgb(241, 138, 78);">
<rect width="100" height="100"/>
</g></g><g transform="translate(348,377) scale(0.29,0.29)"><g transform="" style="fill: rgb(241, 138, 78);">
<rect width="100" height="100"/>
</g></g><g transform="translate(377,377) scale(0.058,0.058)"><g transform="" style="fill: rgb(241, 138, 78);">
<path d="M250,500c-58.271,0-250,0-250,0s0-170.207,0-250C0,187.676,0,0,0,0s174.261,0,250,0c138.064,0,250,111.929,250,250
	C500,388.064,388.064,500,250,500z"/>
</g></g><g transform="translate(435,377) scale(0.058,0.058)"><g transform="" style="fill: rgb(241, 138, 78);">
<g>
	<path d="M500,500V0H0C0.001,276.142,223.853,500,500,500z"/>
</g>
</g></g><g transform="translate(464,377) scale(0.29,0.29)"><g transform="" style="fill: rgb(241, 138, 78);">
<rect width="100" height="100"/>
</g></g><g transform="translate(522,377) scale(0.058,0.058)"><g transform="" style="fill: rgb(241, 138, 78);">
<path d="M250,0c58.27,0,250,0,250,0s0,170.182,0,250c0,62.305,0,250,0,250s-174.219,0-250,0
	C111.881,500,0,388.021,0,250C0,111.963,111.881,0,250,0z"/>
</g></g><g transform="translate(551,377) scale(0.29,0.29)"><g transform="" style="fill: rgb(241, 138, 78);">
<rect width="100" height="100"/>
</g></g><g transform="translate(580,377) scale(0.29,0.29)"><g transform="" style="fill: rgb(241, 138, 78);">
<rect width="100" height="100"/>
</g></g><g transform="translate(609,377) scale(0.29,0.29)"><g transform="" style="fill: rgb(241, 138, 78);">
<rect width="100" height="100"/>
</g></g><g transform="translate(638,377) scale(0.058,0.058)"><g transform="" style="fill: rgb(241, 138, 78);">
<g>
	<path d="M0,0v500h500C500,223.853,276.142,0,0,0z"/>
</g>
</g></g><g transform="translate(754,377) scale(0.29,0.29)"><g transform="" style="fill: rgb(241, 138, 78);">
<rect width="100" height="100"/>
</g></g><g transform="translate(783,377) scale(0.29,0.29)"><g transform="" style="fill: rgb(241, 138, 78);">
<rect width="100" height="100"/>
</g></g><g transform="translate(812,377) scale(0.058,0.058)"><g transform="" style="fill: rgb(241, 138, 78);">
<g>
	<path d="M0,0v500h500C500,223.853,276.142,0,0,0z"/>
</g>
</g></g><g transform="translate(0,406) scale(0.29,0.29)"><g transform="" style="fill: rgb(241, 138, 78);">
<rect width="100" height="100"/>
</g></g><g transform="translate(87,406) scale(0.058,0.058)"><g transform="" style="fill: rgb(241, 138, 78);">
<path d="M250,0c58.27,0,250,0,250,0s0,170.182,0,250c0,62.305,0,250,0,250s-174.219,0-250,0
	C111.881,500,0,388.021,0,250C0,111.963,111.881,0,250,0z"/>
</g></g><g transform="translate(116,406) scale(0.29,0.29)"><g transform="" style="fill: rgb(241, 138, 78);">
<rect width="100" height="100"/>
</g></g><g transform="translate(145,406) scale(0.29,0.29)"><g transform="" style="fill: rgb(241, 138, 78);">
<rect width="100" height="100"/>
</g></g><g transform="translate(174,406) scale(0.29,0.29)"><g transform="" style="fill: rgb(241, 138, 78);">
<rect width="100" height="100"/>
</g></g><g transform="translate(203,406) scale(0.29,0.29)"><g transform="" style="fill: rgb(241, 138, 78);">
<rect width="100" height="100"/>
</g></g><g transform="translate(232,406) scale(0.29,0.29)"><g transform="" style="fill: rgb(241, 138, 78);">
<rect width="100" height="100"/>
</g></g><g transform="translate(261,406) scale(0.058,0.058)"><g transform="" style="fill: rgb(241, 138, 78);">
<path d="M250,500c-58.271,0-250,0-250,0s0-170.207,0-250C0,187.676,0,0,0,0s174.261,0,250,0c138.064,0,250,111.929,250,250
	C500,388.064,388.064,500,250,500z"/>
</g></g><g transform="translate(406,406) scale(0.058,0.058)"><g transform="" style="fill: rgb(241, 138, 78);">
<path d="M250,0c138.077,0,250,111.93,250,250c0,138.077-111.923,250-250,250C111.93,500,0,388.077,0,250C0,111.93,111.93,0,250,0z"
	/>
</g></g><g transform="translate(464,406) scale(0.058,0.058)"><g transform="" style="fill: rgb(241, 138, 78);">
<path d="M0,250C0,191.729,0,0,0,0s170.201,0,250,0c62.324,0,250,0,250,0s0,174.261,0,250c0,138.064-111.936,250-250,250
	C111.929,500,0,388.064,0,250z"/>
</g></g><g transform="translate(551,406) scale(0.058,0.058)"><g transform="" style="fill: rgb(241, 138, 78);">
<g>
	<path d="M500,500V0H0C0.001,276.142,223.853,500,500,500z"/>
</g>
</g></g><g transform="translate(580,406) scale(0.058,0.058)"><g transform="" style="fill: rgb(241, 138, 78);">
<g>
	<path d="M500,0H0v500C276.142,500,500,276.142,500,0z"/>
</g>
</g></g><g transform="translate(638,406) scale(0.29,0.29)"><g transform="" style="fill: rgb(241, 138, 78);">
<rect width="100" height="100"/>
</g></g><g transform="translate(696,406) scale(0.058,0.058)"><g transform="" style="fill: rgb(241, 138, 78);">
<path d="M250,0c138.077,0,250,111.93,250,250c0,138.077-111.923,250-250,250C111.93,500,0,388.077,0,250C0,111.93,111.93,0,250,0z"
	/>
</g></g><g transform="translate(754,406) scale(0.058,0.058)"><g transform="" style="fill: rgb(241, 138, 78);">
<g>
	<path d="M500,500V0H0C0.001,276.142,223.853,500,500,500z"/>
</g>
</g></g><g transform="translate(783,406) scale(0.29,0.29)"><g transform="" style="fill: rgb(241, 138, 78);">
<rect width="100" height="100"/>
</g></g><g transform="translate(812,406) scale(0.058,0.058)"><g transform="" style="fill: rgb(241, 138, 78);">
<g>
	<path d="M500,0H0v500C276.142,500,500,276.142,500,0z"/>
</g>
</g></g><g transform="translate(0,435) scale(0.29,0.29)"><g transform="" style="fill: rgb(241, 138, 78);">
<rect width="100" height="100"/>
</g></g><g transform="translate(29,435) scale(0.29,0.29)"><g transform="" style="fill: rgb(241, 138, 78);">
<rect width="100" height="100"/>
</g></g><g transform="translate(58,435) scale(0.058,0.058)"><g transform="" style="fill: rgb(241, 138, 78);">
<path d="M250,500c-58.271,0-250,0-250,0s0-170.207,0-250C0,187.676,0,0,0,0s174.261,0,250,0c138.064,0,250,111.929,250,250
	C500,388.064,388.064,500,250,500z"/>
</g></g><g transform="translate(203,435) scale(0.058,0.058)"><g transform="" style="fill: rgb(241, 138, 78);">
<g>
	<path d="M500,500V0H0C0.001,276.142,223.853,500,500,500z"/>
</g>
</g></g><g transform="translate(232,435) scale(0.29,0.29)"><g transform="" style="fill: rgb(241, 138, 78);">
<rect width="100" height="100"/>
</g></g><g transform="translate(290,435) scale(0.058,0.058)"><g transform="" style="fill: rgb(241, 138, 78);">
<path d="M250,0c138.077,0,250,111.93,250,250c0,138.077-111.923,250-250,250C111.93,500,0,388.077,0,250C0,111.93,111.93,0,250,0z"
	/>
</g></g><g transform="translate(377,435) scale(0.058,0.058)"><g transform="" style="fill: rgb(241, 138, 78);">
<path d="M250,0c138.077,0,250,111.93,250,250c0,138.077-111.923,250-250,250C111.93,500,0,388.077,0,250C0,111.93,111.93,0,250,0z"
	/>
</g></g><g transform="translate(435,435) scale(0.058,0.058)"><g transform="" style="fill: rgb(241, 138, 78);">
<path d="M500,250c0,58.266,0,250,0,250s-170.194,0-250-0.012c-62.324,0.012-250,0-250,0s0-174.241,0-249.994
	C0.006,111.931,111.929,0,249.994,0C388.064,0,500,111.93,500,250z"/>
</g></g><g transform="translate(609,435) scale(0.058,0.058)"><g transform="" style="fill: rgb(241, 138, 78);">
<g>
	<path d="M0,500h500V0C223.861,0.001,0,223.854,0,500z"/>
</g>
</g></g><g transform="translate(638,435) scale(0.29,0.29)"><g transform="" style="fill: rgb(241, 138, 78);">
<rect width="100" height="100"/>
</g></g><g transform="translate(667,435) scale(0.058,0.058)"><g transform="" style="fill: rgb(241, 138, 78);">
<g>
	<path d="M0,0v500h500C500,223.853,276.142,0,0,0z"/>
</g>
</g></g><g transform="translate(783,435) scale(0.29,0.29)"><g transform="" style="fill: rgb(241, 138, 78);">
<rect width="100" height="100"/>
</g></g><g transform="translate(0,464) scale(0.058,0.058)"><g transform="" style="fill: rgb(241, 138, 78);">
<path d="M0,250C0,191.729,0,0,0,0s170.201,0,250,0c62.324,0,250,0,250,0s0,174.261,0,250c0,138.064-111.936,250-250,250
	C111.929,500,0,388.064,0,250z"/>
</g></g><g transform="translate(116,464) scale(0.058,0.058)"><g transform="" style="fill: rgb(241, 138, 78);">
<path d="M250,0c138.077,0,250,111.93,250,250c0,138.077-111.923,250-250,250C111.93,500,0,388.077,0,250C0,111.93,111.93,0,250,0z"
	/>
</g></g><g transform="translate(174,464) scale(0.058,0.058)"><g transform="" style="fill: rgb(241, 138, 78);">
<path d="M250,0c138.077,0,250,111.93,250,250c0,138.077-111.923,250-250,250C111.93,500,0,388.077,0,250C0,111.93,111.93,0,250,0z"
	/>
</g></g><g transform="translate(232,464) scale(0.29,0.29)"><g transform="" style="fill: rgb(241, 138, 78);">
<rect width="100" height="100"/>
</g></g><g transform="translate(261,464) scale(0.058,0.058)"><g transform="" style="fill: rgb(241, 138, 78);">
<path d="M250,500c-58.271,0-250,0-250,0s0-170.207,0-250C0,187.676,0,0,0,0s174.261,0,250,0c138.064,0,250,111.929,250,250
	C500,388.064,388.064,500,250,500z"/>
</g></g><g transform="translate(348,464) scale(0.058,0.058)"><g transform="" style="fill: rgb(241, 138, 78);">
<path d="M250,0c138.077,0,250,111.93,250,250c0,138.077-111.923,250-250,250C111.93,500,0,388.077,0,250C0,111.93,111.93,0,250,0z"
	/>
</g></g><g transform="translate(435,464) scale(0.29,0.29)"><g transform="" style="fill: rgb(241, 138, 78);">
<rect width="100" height="100"/>
</g></g><g transform="translate(522,464) scale(0.058,0.058)"><g transform="" style="fill: rgb(241, 138, 78);">
<path d="M250,0c138.077,0,250,111.93,250,250c0,138.077-111.923,250-250,250C111.93,500,0,388.077,0,250C0,111.93,111.93,0,250,0z"
	/>
</g></g><g transform="translate(580,464) scale(0.058,0.058)"><g transform="" style="fill: rgb(241, 138, 78);">
<g>
	<path d="M0,500h500V0C223.861,0.001,0,223.854,0,500z"/>
</g>
</g></g><g transform="translate(609,464) scale(0.058,0.058)"><g transform="" style="fill: rgb(241, 138, 78);">
<g>
	<path d="M500,0H0v500C276.142,500,500,276.142,500,0z"/>
</g>
</g></g><g transform="translate(667,464) scale(0.29,0.29)"><g transform="" style="fill: rgb(241, 138, 78);">
<rect width="100" height="100"/>
</g></g><g transform="translate(696,464) scale(0.29,0.29)"><g transform="" style="fill: rgb(241, 138, 78);">
<rect width="100" height="100"/>
</g></g><g transform="translate(725,464) scale(0.058,0.058)"><g transform="" style="fill: rgb(241, 138, 78);">
<g>
	<path d="M0,0v500h500C500,223.853,276.142,0,0,0z"/>
</g>
</g></g><g transform="translate(783,464) scale(0.29,0.29)"><g transform="" style="fill: rgb(241, 138, 78);">
<rect width="100" height="100"/>
</g></g><g transform="translate(29,493) scale(0.058,0.058)"><g transform="" style="fill: rgb(241, 138, 78);">
<path d="M250,0c58.27,0,250,0,250,0s0,170.182,0,250c0,62.305,0,250,0,250s-174.219,0-250,0
	C111.881,500,0,388.021,0,250C0,111.963,111.881,0,250,0z"/>
</g></g><g transform="translate(58,493) scale(0.29,0.29)"><g transform="" style="fill: rgb(241, 138, 78);">
<rect width="100" height="100"/>
</g></g><g transform="translate(87,493) scale(0.058,0.058)"><g transform="" style="fill: rgb(241, 138, 78);">
<g>
	<path d="M0,0v500h500C500,223.853,276.142,0,0,0z"/>
</g>
</g></g><g transform="translate(145,493) scale(0.058,0.058)"><g transform="" style="fill: rgb(241, 138, 78);">
<path d="M250,0c138.077,0,250,111.93,250,250c0,138.077-111.923,250-250,250C111.93,500,0,388.077,0,250C0,111.93,111.93,0,250,0z"
	/>
</g></g><g transform="translate(232,493) scale(0.29,0.29)"><g transform="" style="fill: rgb(241, 138, 78);">
<rect width="100" height="100"/>
</g></g><g transform="translate(290,493) scale(0.058,0.058)"><g transform="" style="fill: rgb(241, 138, 78);">
<path d="M500,250c0,58.266,0,250,0,250s-170.194,0-250-0.012c-62.324,0.012-250,0-250,0s0-174.241,0-249.994
	C0.006,111.931,111.929,0,249.994,0C388.064,0,500,111.93,500,250z"/>
</g></g><g transform="translate(377,493) scale(0.058,0.058)"><g transform="" style="fill: rgb(241, 138, 78);">
<path d="M250,0c138.077,0,250,111.93,250,250c0,138.077-111.923,250-250,250C111.93,500,0,388.077,0,250C0,111.93,111.93,0,250,0z"
	/>
</g></g><g transform="translate(435,493) scale(0.29,0.29)"><g transform="" style="fill: rgb(241, 138, 78);">
<rect width="100" height="100"/>
</g></g><g transform="translate(493,493) scale(0.058,0.058)"><g transform="" style="fill: rgb(241, 138, 78);">
<path d="M250,0c138.077,0,250,111.93,250,250c0,138.077-111.923,250-250,250C111.93,500,0,388.077,0,250C0,111.93,111.93,0,250,0z"
	/>
</g></g><g transform="translate(580,493) scale(0.29,0.29)"><g transform="" style="fill: rgb(241, 138, 78);">
<rect width="100" height="100"/>
</g></g><g transform="translate(667,493) scale(0.29,0.29)"><g transform="" style="fill: rgb(241, 138, 78);">
<rect width="100" height="100"/>
</g></g><g transform="translate(725,493) scale(0.058,0.058)"><g transform="" style="fill: rgb(241, 138, 78);">
<g>
	<path d="M500,500V0H0C0.001,276.142,223.853,500,500,500z"/>
</g>
</g></g><g transform="translate(754,493) scale(0.29,0.29)"><g transform="" style="fill: rgb(241, 138, 78);">
<rect width="100" height="100"/>
</g></g><g transform="translate(783,493) scale(0.058,0.058)"><g transform="" style="fill: rgb(241, 138, 78);">
<g>
	<path d="M500,0H0v500C276.142,500,500,276.142,500,0z"/>
</g>
</g></g><g transform="translate(0,522) scale(0.058,0.058)"><g transform="" style="fill: rgb(241, 138, 78);">
<path d="M250,0c138.077,0,250,111.93,250,250c0,138.077-111.923,250-250,250C111.93,500,0,388.077,0,250C0,111.93,111.93,0,250,0z"
	/>
</g></g><g transform="translate(58,522) scale(0.29,0.29)"><g transform="" style="fill: rgb(241, 138, 78);">
<rect width="100" height="100"/>
</g></g><g transform="translate(87,522) scale(0.29,0.29)"><g transform="" style="fill: rgb(241, 138, 78);">
<rect width="100" height="100"/>
</g></g><g transform="translate(116,522) scale(0.058,0.058)"><g transform="" style="fill: rgb(241, 138, 78);">
<g>
	<path d="M0,0v500h500C500,223.853,276.142,0,0,0z"/>
</g>
</g></g><g transform="translate(174,522) scale(0.058,0.058)"><g transform="" style="fill: rgb(241, 138, 78);">
<path d="M250,0c138.077,0,250,111.93,250,250c0,138.077-111.923,250-250,250C111.93,500,0,388.077,0,250C0,111.93,111.93,0,250,0z"
	/>
</g></g><g transform="translate(232,522) scale(0.29,0.29)"><g transform="" style="fill: rgb(241, 138, 78);">
<rect width="100" height="100"/>
</g></g><g transform="translate(290,522) scale(0.29,0.29)"><g transform="" style="fill: rgb(241, 138, 78);">
<rect width="100" height="100"/>
</g></g><g transform="translate(319,522) scale(0.29,0.29)"><g transform="" style="fill: rgb(241, 138, 78);">
<rect width="100" height="100"/>
</g></g><g transform="translate(348,522) scale(0.058,0.058)"><g transform="" style="fill: rgb(241, 138, 78);">
<g>
	<path d="M0,0v500h500C500,223.853,276.142,0,0,0z"/>
</g>
</g></g><g transform="translate(435,522) scale(0.29,0.29)"><g transform="" style="fill: rgb(241, 138, 78);">
<rect width="100" height="100"/>
</g></g><g transform="translate(522,522) scale(0.058,0.058)"><g transform="" style="fill: rgb(241, 138, 78);">
<path d="M500,250c0,58.266,0,250,0,250s-170.194,0-250-0.012c-62.324,0.012-250,0-250,0s0-174.241,0-249.994
	C0.006,111.931,111.929,0,249.994,0C388.064,0,500,111.93,500,250z"/>
</g></g><g transform="translate(580,522) scale(0.29,0.29)"><g transform="" style="fill: rgb(241, 138, 78);">
<rect width="100" height="100"/>
</g></g><g transform="translate(667,522) scale(0.058,0.058)"><g transform="" style="fill: rgb(241, 138, 78);">
<path d="M0,250C0,191.729,0,0,0,0s170.201,0,250,0c62.324,0,250,0,250,0s0,174.261,0,250c0,138.064-111.936,250-250,250
	C111.929,500,0,388.064,0,250z"/>
</g></g><g transform="translate(754,522) scale(0.29,0.29)"><g transform="" style="fill: rgb(241, 138, 78);">
<rect width="100" height="100"/>
</g></g><g transform="translate(58,551) scale(0.058,0.058)"><g transform="" style="fill: rgb(241, 138, 78);">
<g>
	<path d="M500,500V0H0C0.001,276.142,223.853,500,500,500z"/>
</g>
</g></g><g transform="translate(87,551) scale(0.29,0.29)"><g transform="" style="fill: rgb(241, 138, 78);">
<rect width="100" height="100"/>
</g></g><g transform="translate(116,551) scale(0.29,0.29)"><g transform="" style="fill: rgb(241, 138, 78);">
<rect width="100" height="100"/>
</g></g><g transform="translate(145,551) scale(0.058,0.058)"><g transform="" style="fill: rgb(241, 138, 78);">
<path d="M250,500c-58.271,0-250,0-250,0s0-170.207,0-250C0,187.676,0,0,0,0s174.261,0,250,0c138.064,0,250,111.929,250,250
	C500,388.064,388.064,500,250,500z"/>
</g></g><g transform="translate(203,551) scale(0.058,0.058)"><g transform="" style="fill: rgb(241, 138, 78);">
<path d="M250,0c58.27,0,250,0,250,0s0,170.182,0,250c0,62.305,0,250,0,250s-174.219,0-250,0
	C111.881,500,0,388.021,0,250C0,111.963,111.881,0,250,0z"/>
</g></g><g transform="translate(232,551) scale(0.29,0.29)"><g transform="" style="fill: rgb(241, 138, 78);">
<rect width="100" height="100"/>
</g></g><g transform="translate(261,551) scale(0.29,0.29)"><g transform="" style="fill: rgb(241, 138, 78);">
<rect width="100" height="100"/>
</g></g><g transform="translate(290,551) scale(0.29,0.29)"><g transform="" style="fill: rgb(241, 138, 78);">
<rect width="100" height="100"/>
</g></g><g transform="translate(319,551) scale(0.29,0.29)"><g transform="" style="fill: rgb(241, 138, 78);">
<rect width="100" height="100"/>
</g></g><g transform="translate(348,551) scale(0.29,0.29)"><g transform="" style="fill: rgb(241, 138, 78);">
<rect width="100" height="100"/>
</g></g><g transform="translate(435,551) scale(0.29,0.29)"><g transform="" style="fill: rgb(241, 138, 78);">
<rect width="100" height="100"/>
</g></g><g transform="translate(464,551) scale(0.29,0.29)"><g transform="" style="fill: rgb(241, 138, 78);">
<rect width="100" height="100"/>
</g></g><g transform="translate(493,551) scale(0.29,0.29)"><g transform="" style="fill: rgb(241, 138, 78);">
<rect width="100" height="100"/>
</g></g><g transform="translate(522,551) scale(0.058,0.058)"><g transform="" style="fill: rgb(241, 138, 78);">
<g>
	<path d="M500,0H0v500C276.142,500,500,276.142,500,0z"/>
</g>
</g></g><g transform="translate(580,551) scale(0.29,0.29)"><g transform="" style="fill: rgb(241, 138, 78);">
<rect width="100" height="100"/>
</g></g><g transform="translate(609,551) scale(0.058,0.058)"><g transform="" style="fill: rgb(241, 138, 78);">
<g>
	<path d="M0,0v500h500C500,223.853,276.142,0,0,0z"/>
</g>
</g></g><g transform="translate(696,551) scale(0.058,0.058)"><g transform="" style="fill: rgb(241, 138, 78);">
<path d="M500,250c0,58.266,0,250,0,250s-170.194,0-250-0.012c-62.324,0.012-250,0-250,0s0-174.241,0-249.994
	C0.006,111.931,111.929,0,249.994,0C388.064,0,500,111.93,500,250z"/>
</g></g><g transform="translate(754,551) scale(0.29,0.29)"><g transform="" style="fill: rgb(241, 138, 78);">
<rect width="100" height="100"/>
</g></g><g transform="translate(29,580) scale(0.058,0.058)"><g transform="" style="fill: rgb(241, 138, 78);">
<path d="M250,0c138.077,0,250,111.93,250,250c0,138.077-111.923,250-250,250C111.93,500,0,388.077,0,250C0,111.93,111.93,0,250,0z"
	/>
</g></g><g transform="translate(87,580) scale(0.058,0.058)"><g transform="" style="fill: rgb(241, 138, 78);">
<g>
	<path d="M500,500V0H0C0.001,276.142,223.853,500,500,500z"/>
</g>
</g></g><g transform="translate(116,580) scale(0.058,0.058)"><g transform="" style="fill: rgb(241, 138, 78);">
<g>
	<path d="M500,0H0v500C276.142,500,500,276.142,500,0z"/>
</g>
</g></g><g transform="translate(174,580) scale(0.058,0.058)"><g transform="" style="fill: rgb(241, 138, 78);">
<path d="M250,0c138.077,0,250,111.93,250,250c0,138.077-111.923,250-250,250C111.93,500,0,388.077,0,250C0,111.93,111.93,0,250,0z"
	/>
</g></g><g transform="translate(232,580) scale(0.29,0.29)"><g transform="" style="fill: rgb(241, 138, 78);">
<rect width="100" height="100"/>
</g></g><g transform="translate(261,580) scale(0.29,0.29)"><g transform="" style="fill: rgb(241, 138, 78);">
<rect width="100" height="100"/>
</g></g><g transform="translate(348,580) scale(0.29,0.29)"><g transform="" style="fill: rgb(241, 138, 78);">
<rect width="100" height="100"/>
</g></g><g transform="translate(377,580) scale(0.058,0.058)"><g transform="" style="fill: rgb(241, 138, 78);">
<g>
	<path d="M0,0v500h500C500,223.853,276.142,0,0,0z"/>
</g>
</g></g><g transform="translate(435,580) scale(0.058,0.058)"><g transform="" style="fill: rgb(241, 138, 78);">
<g>
	<path d="M500,500V0H0C0.001,276.142,223.853,500,500,500z"/>
</g>
</g></g><g transform="translate(464,580) scale(0.29,0.29)"><g transform="" style="fill: rgb(241, 138, 78);">
<rect width="100" height="100"/>
</g></g><g transform="translate(493,580) scale(0.29,0.29)"><g transform="" style="fill: rgb(241, 138, 78);">
<rect width="100" height="100"/>
</g></g><g transform="translate(580,580) scale(0.29,0.29)"><g transform="" style="fill: rgb(241, 138, 78);">
<rect width="100" height="100"/>
</g></g><g transform="translate(609,580) scale(0.29,0.29)"><g transform="" style="fill: rgb(241, 138, 78);">
<rect width="100" height="100"/>
</g></g><g transform="translate(638,580) scale(0.29,0.29)"><g transform="" style="fill: rgb(241, 138, 78);">
<rect width="100" height="100"/>
</g></g><g transform="translate(667,580) scale(0.29,0.29)"><g transform="" style="fill: rgb(241, 138, 78);">
<rect width="100" height="100"/>
</g></g><g transform="translate(696,580) scale(0.29,0.29)"><g transform="" style="fill: rgb(241, 138, 78);">
<rect width="100" height="100"/>
</g></g><g transform="translate(725,580) scale(0.29,0.29)"><g transform="" style="fill: rgb(241, 138, 78);">
<rect width="100" height="100"/>
</g></g><g transform="translate(754,580) scale(0.29,0.29)"><g transform="" style="fill: rgb(241, 138, 78);">
<rect width="100" height="100"/>
</g></g><g transform="translate(232,609) scale(0.29,0.29)"><g transform="" style="fill: rgb(241, 138, 78);">
<rect width="100" height="100"/>
</g></g><g transform="translate(261,609) scale(0.058,0.058)"><g transform="" style="fill: rgb(241, 138, 78);">
<g>
	<path d="M500,0H0v500C276.142,500,500,276.142,500,0z"/>
</g>
</g></g><g transform="translate(348,609) scale(0.058,0.058)"><g transform="" style="fill: rgb(241, 138, 78);">
<g>
	<path d="M500,500V0H0C0.001,276.142,223.853,500,500,500z"/>
</g>
</g></g><g transform="translate(377,609) scale(0.29,0.29)"><g transform="" style="fill: rgb(241, 138, 78);">
<rect width="100" height="100"/>
</g></g><g transform="translate(406,609) scale(0.058,0.058)"><g transform="" style="fill: rgb(241, 138, 78);">
<path d="M250,500c-58.271,0-250,0-250,0s0-170.207,0-250C0,187.676,0,0,0,0s174.261,0,250,0c138.064,0,250,111.929,250,250
	C500,388.064,388.064,500,250,500z"/>
</g></g><g transform="translate(493,609) scale(0.058,0.058)"><g transform="" style="fill: rgb(241, 138, 78);">
<g>
	<path d="M500,500V0H0C0.001,276.142,223.853,500,500,500z"/>
</g>
</g></g><g transform="translate(522,609) scale(0.058,0.058)"><g transform="" style="fill: rgb(241, 138, 78);">
<g>
	<path d="M0,0v500h500C500,223.853,276.142,0,0,0z"/>
</g>
</g></g><g transform="translate(580,609) scale(0.29,0.29)"><g transform="" style="fill: rgb(241, 138, 78);">
<rect width="100" height="100"/>
</g></g><g transform="translate(696,609) scale(0.29,0.29)"><g transform="" style="fill: rgb(241, 138, 78);">
<rect width="100" height="100"/>
</g></g><g transform="translate(725,609) scale(0.29,0.29)"><g transform="" style="fill: rgb(241, 138, 78);">
<rect width="100" height="100"/>
</g></g><g transform="translate(754,609) scale(0.29,0.29)"><g transform="" style="fill: rgb(241, 138, 78);">
<rect width="100" height="100"/>
</g></g><g transform="translate(783,609) scale(0.29,0.29)"><g transform="" style="fill: rgb(241, 138, 78);">
<rect width="100" height="100"/>
</g></g><g transform="translate(812,609) scale(0.058,0.058)"><g transform="" style="fill: rgb(241, 138, 78);">
<path d="M250,500c-58.271,0-250,0-250,0s0-170.207,0-250C0,187.676,0,0,0,0s174.261,0,250,0c138.064,0,250,111.929,250,250
	C500,388.064,388.064,500,250,500z"/>
</g></g><g transform="translate(232,638) scale(0.29,0.29)"><g transform="" style="fill: rgb(241, 138, 78);">
<rect width="100" height="100"/>
</g></g><g transform="translate(290,638) scale(0.058,0.058)"><g transform="" style="fill: rgb(241, 138, 78);">
<g>
	<path d="M0,500h500V0C223.861,0.001,0,223.854,0,500z"/>
</g>
</g></g><g transform="translate(319,638) scale(0.058,0.058)"><g transform="" style="fill: rgb(241, 138, 78);">
<g>
	<path d="M0,0v500h500C500,223.853,276.142,0,0,0z"/>
</g>
</g></g><g transform="translate(377,638) scale(0.058,0.058)"><g transform="" style="fill: rgb(241, 138, 78);">
<path d="M0,250C0,191.729,0,0,0,0s170.201,0,250,0c62.324,0,250,0,250,0s0,174.261,0,250c0,138.064-111.936,250-250,250
	C111.929,500,0,388.064,0,250z"/>
</g></g><g transform="translate(464,638) scale(0.058,0.058)"><g transform="" style="fill: rgb(241, 138, 78);">
<path d="M250,0c138.077,0,250,111.93,250,250c0,138.077-111.923,250-250,250C111.93,500,0,388.077,0,250C0,111.93,111.93,0,250,0z"
	/>
</g></g><g transform="translate(522,638) scale(0.058,0.058)"><g transform="" style="fill: rgb(241, 138, 78);">
<g>
	<path d="M500,500V0H0C0.001,276.142,223.853,500,500,500z"/>
</g>
</g></g><g transform="translate(551,638) scale(0.29,0.29)"><g transform="" style="fill: rgb(241, 138, 78);">
<rect width="100" height="100"/>
</g></g><g transform="translate(580,638) scale(0.29,0.29)"><g transform="" style="fill: rgb(241, 138, 78);">
<rect width="100" height="100"/>
</g></g><g transform="translate(638,638) scale(0.058,0.058)"><g transform="" style="fill: rgb(241, 138, 78);">
<path d="M250,0c138.077,0,250,111.93,250,250c0,138.077-111.923,250-250,250C111.93,500,0,388.077,0,250C0,111.93,111.93,0,250,0z"
	/>
</g></g><g transform="translate(696,638) scale(0.29,0.29)"><g transform="" style="fill: rgb(241, 138, 78);">
<rect width="100" height="100"/>
</g></g><g transform="translate(725,638) scale(0.29,0.29)"><g transform="" style="fill: rgb(241, 138, 78);">
<rect width="100" height="100"/>
</g></g><g transform="translate(783,638) scale(0.29,0.29)"><g transform="" style="fill: rgb(241, 138, 78);">
<rect width="100" height="100"/>
</g></g><g transform="translate(232,667) scale(0.058,0.058)"><g transform="" style="fill: rgb(241, 138, 78);">
<g>
	<path d="M500,500V0H0C0.001,276.142,223.853,500,500,500z"/>
</g>
</g></g><g transform="translate(261,667) scale(0.29,0.29)"><g transform="" style="fill: rgb(241, 138, 78);">
<rect width="100" height="100"/>
</g></g><g transform="translate(290,667) scale(0.29,0.29)"><g transform="" style="fill: rgb(241, 138, 78);">
<rect width="100" height="100"/>
</g></g><g transform="translate(319,667) scale(0.29,0.29)"><g transform="" style="fill: rgb(241, 138, 78);">
<rect width="100" height="100"/>
</g></g><g transform="translate(580,667) scale(0.29,0.29)"><g transform="" style="fill: rgb(241, 138, 78);">
<rect width="100" height="100"/>
</g></g><g transform="translate(696,667) scale(0.29,0.29)"><g transform="" style="fill: rgb(241, 138, 78);">
<rect width="100" height="100"/>
</g></g><g transform="translate(725,667) scale(0.058,0.058)"><g transform="" style="fill: rgb(241, 138, 78);">
<g>
	<path d="M500,0H0v500C276.142,500,500,276.142,500,0z"/>
</g>
</g></g><g transform="translate(783,667) scale(0.29,0.29)"><g transform="" style="fill: rgb(241, 138, 78);">
<rect width="100" height="100"/>
</g></g><g transform="translate(319,696) scale(0.058,0.058)"><g transform="" style="fill: rgb(241, 138, 78);">
<path d="M0,250C0,191.729,0,0,0,0s170.201,0,250,0c62.324,0,250,0,250,0s0,174.261,0,250c0,138.064-111.936,250-250,250
	C111.929,500,0,388.064,0,250z"/>
</g></g><g transform="translate(406,696) scale(0.058,0.058)"><g transform="" style="fill: rgb(241, 138, 78);">
<g>
	<path d="M0,500h500V0C223.861,0.001,0,223.854,0,500z"/>
</g>
</g></g><g transform="translate(435,696) scale(0.058,0.058)"><g transform="" style="fill: rgb(241, 138, 78);">
<g>
	<path d="M0,0v500h500C500,223.853,276.142,0,0,0z"/>
</g>
</g></g><g transform="translate(493,696) scale(0.058,0.058)"><g transform="" style="fill: rgb(241, 138, 78);">
<path d="M500,250c0,58.266,0,250,0,250s-170.194,0-250-0.012c-62.324,0.012-250,0-250,0s0-174.241,0-249.994
	C0.006,111.931,111.929,0,249.994,0C388.064,0,500,111.93,500,250z"/>
</g></g><g transform="translate(580,696) scale(0.058,0.058)"><g transform="" style="fill: rgb(241, 138, 78);">
<g>
	<path d="M500,500V0H0C0.001,276.142,223.853,500,500,500z"/>
</g>
</g></g><g transform="translate(609,696) scale(0.29,0.29)"><g transform="" style="fill: rgb(241, 138, 78);">
<rect width="100" height="100"/>
</g></g><g transform="translate(638,696) scale(0.29,0.29)"><g transform="" style="fill: rgb(241, 138, 78);">
<rect width="100" height="100"/>
</g></g><g transform="translate(667,696) scale(0.29,0.29)"><g transform="" style="fill: rgb(241, 138, 78);">
<rect width="100" height="100"/>
</g></g><g transform="translate(696,696) scale(0.29,0.29)"><g transform="" style="fill: rgb(241, 138, 78);">
<rect width="100" height="100"/>
</g></g><g transform="translate(754,696) scale(0.058,0.058)"><g transform="" style="fill: rgb(241, 138, 78);">
<path d="M250,0c58.27,0,250,0,250,0s0,170.182,0,250c0,62.305,0,250,0,250s-174.219,0-250,0
	C111.881,500,0,388.021,0,250C0,111.963,111.881,0,250,0z"/>
</g></g><g transform="translate(783,696) scale(0.058,0.058)"><g transform="" style="fill: rgb(241, 138, 78);">
<g>
	<path d="M500,0H0v500C276.142,500,500,276.142,500,0z"/>
</g>
</g></g><g transform="translate(232,725) scale(0.058,0.058)"><g transform="" style="fill: rgb(241, 138, 78);">
<g>
	<path d="M0,500h500V0C223.861,0.001,0,223.854,0,500z"/>
</g>
</g></g><g transform="translate(261,725) scale(0.29,0.29)"><g transform="" style="fill: rgb(241, 138, 78);">
<rect width="100" height="100"/>
</g></g><g transform="translate(290,725) scale(0.058,0.058)"><g transform="" style="fill: rgb(241, 138, 78);">
<g>
	<path d="M0,0v500h500C500,223.853,276.142,0,0,0z"/>
</g>
</g></g><g transform="translate(377,725) scale(0.058,0.058)"><g transform="" style="fill: rgb(241, 138, 78);">
<path d="M250,0c58.27,0,250,0,250,0s0,170.182,0,250c0,62.305,0,250,0,250s-174.219,0-250,0
	C111.881,500,0,388.021,0,250C0,111.963,111.881,0,250,0z"/>
</g></g><g transform="translate(406,725) scale(0.29,0.29)"><g transform="" style="fill: rgb(241, 138, 78);">
<rect width="100" height="100"/>
</g></g><g transform="translate(435,725) scale(0.29,0.29)"><g transform="" style="fill: rgb(241, 138, 78);">
<rect width="100" height="100"/>
</g></g><g transform="translate(464,725) scale(0.29,0.29)"><g transform="" style="fill: rgb(241, 138, 78);">
<rect width="100" height="100"/>
</g></g><g transform="translate(493,725) scale(0.29,0.29)"><g transform="" style="fill: rgb(241, 138, 78);">
<rect width="100" height="100"/>
</g></g><g transform="translate(551,725) scale(0.058,0.058)"><g transform="" style="fill: rgb(241, 138, 78);">
<path d="M500,250c0,58.266,0,250,0,250s-170.194,0-250-0.012c-62.324,0.012-250,0-250,0s0-174.241,0-249.994
	C0.006,111.931,111.929,0,249.994,0C388.064,0,500,111.93,500,250z"/>
</g></g><g transform="translate(609,725) scale(0.058,0.058)"><g transform="" style="fill: rgb(241, 138, 78);">
<path d="M0,250C0,191.729,0,0,0,0s170.201,0,250,0c62.324,0,250,0,250,0s0,174.261,0,250c0,138.064-111.936,250-250,250
	C111.929,500,0,388.064,0,250z"/>
</g></g><g transform="translate(667,725) scale(0.29,0.29)"><g transform="" style="fill: rgb(241, 138, 78);">
<rect width="100" height="100"/>
</g></g><g transform="translate(696,725) scale(0.29,0.29)"><g transform="" style="fill: rgb(241, 138, 78);">
<rect width="100" height="100"/>
</g></g><g transform="translate(725,725) scale(0.058,0.058)"><g transform="" style="fill: rgb(241, 138, 78);">
<path d="M250,500c-58.271,0-250,0-250,0s0-170.207,0-250C0,187.676,0,0,0,0s174.261,0,250,0c138.064,0,250,111.929,250,250
	C500,388.064,388.064,500,250,500z"/>
</g></g><g transform="translate(812,725) scale(0.058,0.058)"><g transform="" style="fill: rgb(241, 138, 78);">
<path d="M500,250c0,58.266,0,250,0,250s-170.194,0-250-0.012c-62.324,0.012-250,0-250,0s0-174.241,0-249.994
	C0.006,111.931,111.929,0,249.994,0C388.064,0,500,111.93,500,250z"/>
</g></g><g transform="translate(232,754) scale(0.058,0.058)"><g transform="" style="fill: rgb(241, 138, 78);">
<g>
	<path d="M500,500V0H0C0.001,276.142,223.853,500,500,500z"/>
</g>
</g></g><g transform="translate(261,754) scale(0.29,0.29)"><g transform="" style="fill: rgb(241, 138, 78);">
<rect width="100" height="100"/>
</g></g><g transform="translate(290,754) scale(0.29,0.29)"><g transform="" style="fill: rgb(241, 138, 78);">
<rect width="100" height="100"/>
</g></g><g transform="translate(319,754) scale(0.058,0.058)"><g transform="" style="fill: rgb(241, 138, 78);">
<g>
	<path d="M0,0v500h500C500,223.853,276.142,0,0,0z"/>
</g>
</g></g><g transform="translate(406,754) scale(0.29,0.29)"><g transform="" style="fill: rgb(241, 138, 78);">
<rect width="100" height="100"/>
</g></g><g transform="translate(493,754) scale(0.058,0.058)"><g transform="" style="fill: rgb(241, 138, 78);">
<path d="M0,250C0,191.729,0,0,0,0s170.201,0,250,0c62.324,0,250,0,250,0s0,174.261,0,250c0,138.064-111.936,250-250,250
	C111.929,500,0,388.064,0,250z"/>
</g></g><g transform="translate(551,754) scale(0.058,0.058)"><g transform="" style="fill: rgb(241, 138, 78);">
<path d="M0,250C0,191.729,0,0,0,0s170.201,0,250,0c62.324,0,250,0,250,0s0,174.261,0,250c0,138.064-111.936,250-250,250
	C111.929,500,0,388.064,0,250z"/>
</g></g><g transform="translate(667,754) scale(0.29,0.29)"><g transform="" style="fill: rgb(241, 138, 78);">
<rect width="100" height="100"/>
</g></g><g transform="translate(754,754) scale(0.058,0.058)"><g transform="" style="fill: rgb(241, 138, 78);">
<path d="M250,0c138.077,0,250,111.93,250,250c0,138.077-111.923,250-250,250C111.93,500,0,388.077,0,250C0,111.93,111.93,0,250,0z"
	/>
</g></g><g transform="translate(812,754) scale(0.058,0.058)"><g transform="" style="fill: rgb(241, 138, 78);">
<path d="M0,250C0,191.729,0,0,0,0s170.201,0,250,0c62.324,0,250,0,250,0s0,174.261,0,250c0,138.064-111.936,250-250,250
	C111.929,500,0,388.064,0,250z"/>
</g></g><g transform="translate(261,783) scale(0.058,0.058)"><g transform="" style="fill: rgb(241, 138, 78);">
<path d="M0,250C0,191.729,0,0,0,0s170.201,0,250,0c62.324,0,250,0,250,0s0,174.261,0,250c0,138.064-111.936,250-250,250
	C111.929,500,0,388.064,0,250z"/>
</g></g><g transform="translate(319,783) scale(0.058,0.058)"><g transform="" style="fill: rgb(241, 138, 78);">
<g>
	<path d="M500,500V0H0C0.001,276.142,223.853,500,500,500z"/>
</g>
</g></g><g transform="translate(348,783) scale(0.29,0.29)"><g transform="" style="fill: rgb(241, 138, 78);">
<rect width="100" height="100"/>
</g></g><g transform="translate(377,783) scale(0.29,0.29)"><g transform="" style="fill: rgb(241, 138, 78);">
<rect width="100" height="100"/>
</g></g><g transform="translate(406,783) scale(0.29,0.29)"><g transform="" style="fill: rgb(241, 138, 78);">
<rect width="100" height="100"/>
</g></g><g transform="translate(435,783) scale(0.29,0.29)"><g transform="" style="fill: rgb(241, 138, 78);">
<rect width="100" height="100"/>
</g></g><g transform="translate(464,783) scale(0.058,0.058)"><g transform="" style="fill: rgb(241, 138, 78);">
<path d="M250,500c-58.271,0-250,0-250,0s0-170.207,0-250C0,187.676,0,0,0,0s174.261,0,250,0c138.064,0,250,111.929,250,250
	C500,388.064,388.064,500,250,500z"/>
</g></g><g transform="translate(522,783) scale(0.058,0.058)"><g transform="" style="fill: rgb(241, 138, 78);">
<path d="M500,250c0,58.266,0,250,0,250s-170.194,0-250-0.012c-62.324,0.012-250,0-250,0s0-174.241,0-249.994
	C0.006,111.931,111.929,0,249.994,0C388.064,0,500,111.93,500,250z"/>
</g></g><g transform="translate(580,783) scale(0.058,0.058)"><g transform="" style="fill: rgb(241, 138, 78);">
<path d="M500,250c0,58.266,0,250,0,250s-170.194,0-250-0.012c-62.324,0.012-250,0-250,0s0-174.241,0-249.994
	C0.006,111.931,111.929,0,249.994,0C388.064,0,500,111.93,500,250z"/>
</g></g><g transform="translate(638,783) scale(0.058,0.058)"><g transform="" style="fill: rgb(241, 138, 78);">
<g>
	<path d="M0,500h500V0C223.861,0.001,0,223.854,0,500z"/>
</g>
</g></g><g transform="translate(667,783) scale(0.29,0.29)"><g transform="" style="fill: rgb(241, 138, 78);">
<rect width="100" height="100"/>
</g></g><g transform="translate(725,783) scale(0.058,0.058)"><g transform="" style="fill: rgb(241, 138, 78);">
<path d="M250,0c138.077,0,250,111.93,250,250c0,138.077-111.923,250-250,250C111.93,500,0,388.077,0,250C0,111.93,111.93,0,250,0z"
	/>
</g></g><g transform="translate(783,783) scale(0.058,0.058)"><g transform="" style="fill: rgb(241, 138, 78);">
<path d="M500,250c0,58.266,0,250,0,250s-170.194,0-250-0.012c-62.324,0.012-250,0-250,0s0-174.241,0-249.994
	C0.006,111.931,111.929,0,249.994,0C388.064,0,500,111.93,500,250z"/>
</g></g><g transform="translate(232,812) scale(0.058,0.058)"><g transform="" style="fill: rgb(241, 138, 78);">
<path d="M250,0c138.077,0,250,111.93,250,250c0,138.077-111.923,250-250,250C111.93,500,0,388.077,0,250C0,111.93,111.93,0,250,0z"
	/>
</g></g><g transform="translate(290,812) scale(0.058,0.058)"><g transform="" style="fill: rgb(241, 138, 78);">
<path d="M250,0c138.077,0,250,111.93,250,250c0,138.077-111.923,250-250,250C111.93,500,0,388.077,0,250C0,111.93,111.93,0,250,0z"
	/>
</g></g><g transform="translate(348,812) scale(0.058,0.058)"><g transform="" style="fill: rgb(241, 138, 78);">
<path d="M0,250C0,191.729,0,0,0,0s170.201,0,250,0c62.324,0,250,0,250,0s0,174.261,0,250c0,138.064-111.936,250-250,250
	C111.929,500,0,388.064,0,250z"/>
</g></g><g transform="translate(435,812) scale(0.058,0.058)"><g transform="" style="fill: rgb(241, 138, 78);">
<path d="M0,250C0,191.729,0,0,0,0s170.201,0,250,0c62.324,0,250,0,250,0s0,174.261,0,250c0,138.064-111.936,250-250,250
	C111.929,500,0,388.064,0,250z"/>
</g></g><g transform="translate(522,812) scale(0.058,0.058)"><g transform="" style="fill: rgb(241, 138, 78);">
<g>
	<path d="M500,500V0H0C0.001,276.142,223.853,500,500,500z"/>
</g>
</g></g><g transform="translate(551,812) scale(0.29,0.29)"><g transform="" style="fill: rgb(241, 138, 78);">
<rect width="100" height="100"/>
</g></g><g transform="translate(580,812) scale(0.058,0.058)"><g transform="" style="fill: rgb(241, 138, 78);">
<g>
	<path d="M500,0H0v500C276.142,500,500,276.142,500,0z"/>
</g>
</g></g><g transform="translate(638,812) scale(0.058,0.058)"><g transform="" style="fill: rgb(241, 138, 78);">
<g>
	<path d="M500,500V0H0C0.001,276.142,223.853,500,500,500z"/>
</g>
</g></g><g transform="translate(667,812) scale(0.29,0.29)"><g transform="" style="fill: rgb(241, 138, 78);">
<rect width="100" height="100"/>
</g></g><g transform="translate(696,812) scale(0.058,0.058)"><g transform="" style="fill: rgb(241, 138, 78);">
<path d="M250,500c-58.271,0-250,0-250,0s0-170.207,0-250C0,187.676,0,0,0,0s174.261,0,250,0c138.064,0,250,111.929,250,250
	C500,388.064,388.064,500,250,500z"/>
</g></g><g transform="translate(783,812) scale(0.058,0.058)"><g transform="" style="fill: rgb(241, 138, 78);">
<path d="M0,250C0,191.729,0,0,0,0s170.201,0,250,0c62.324,0,250,0,250,0s0,174.261,0,250c0,138.064-111.936,250-250,250
	C111.929,500,0,388.064,0,250z"/>
</g></g><g transform="translate(0,0) scale(2.03, 2.03)"><g transform="" style="fill: rgb(241, 138, 78);">
<g>
	<path style="fill:none;" d="M65.859,15.008H34.141c-4.082,0-7.869,1.258-10.979,3.398c-2.419,1.665-4.428,3.864-5.848,6.421
		C15.838,27.484,15,30.526,15,33.758v32.471c0,10.344,8.586,18.76,19.145,18.76L50,84.992l15.855-0.004
		C76.414,84.988,85,76.572,85,66.229V33.758C85,23.419,76.414,15.008,65.859,15.008z"/>
	<path d="M65.859,0.008H34.141h0C18.683,0.008,5.587,10.221,1.4,24.18c-0.433,1.444-0.771,2.928-1.006,4.445
		C0.135,30.299,0,32.013,0,33.758v32.471c0,18.619,15.32,33.76,34.141,33.76L50,99.992l15.859-0.004
		c18.82,0,34.141-15.141,34.141-33.76V33.758C100,15.148,84.68,0.008,65.859,0.008z M85,66.229c0,10.344-8.586,18.76-19.145,18.76
		L50,84.992l-15.855-0.004C23.586,84.988,15,76.572,15,66.229V33.758c0-3.231,0.838-6.273,2.313-8.931
		c1.42-2.557,3.429-4.756,5.848-6.421c3.11-2.141,6.897-3.398,10.979-3.398h31.719C76.414,15.008,85,23.419,85,33.758V66.229z"/>
</g>
</g></g><g transform="translate(638,0) scale(2.03, 2.03)"><g transform="" style="fill: rgb(241, 138, 78);">
<g>
	<path style="fill:none;" d="M65.859,15.008H34.141c-4.082,0-7.869,1.258-10.979,3.398c-2.419,1.665-4.428,3.864-5.848,6.421
		C15.838,27.484,15,30.526,15,33.758v32.471c0,10.344,8.586,18.76,19.145,18.76L50,84.992l15.855-0.004
		C76.414,84.988,85,76.572,85,66.229V33.758C85,23.419,76.414,15.008,65.859,15.008z"/>
	<path d="M65.859,0.008H34.141h0C18.683,0.008,5.587,10.221,1.4,24.18c-0.433,1.444-0.771,2.928-1.006,4.445
		C0.135,30.299,0,32.013,0,33.758v32.471c0,18.619,15.32,33.76,34.141,33.76L50,99.992l15.859-0.004
		c18.82,0,34.141-15.141,34.141-33.76V33.758C100,15.148,84.68,0.008,65.859,0.008z M85,66.229c0,10.344-8.586,18.76-19.145,18.76
		L50,84.992l-15.855-0.004C23.586,84.988,15,76.572,15,66.229V33.758c0-3.231,0.838-6.273,2.313-8.931
		c1.42-2.557,3.429-4.756,5.848-6.421c3.11-2.141,6.897-3.398,10.979-3.398h31.719C76.414,15.008,85,23.419,85,33.758V66.229z"/>
</g>
</g></g><g transform="translate(0,638) scale(2.03, 2.03)"><g transform="" style="fill: rgb(241, 138, 78);">
<g>
	<path style="fill:none;" d="M65.859,15.008H34.141c-4.082,0-7.869,1.258-10.979,3.398c-2.419,1.665-4.428,3.864-5.848,6.421
		C15.838,27.484,15,30.526,15,33.758v32.471c0,10.344,8.586,18.76,19.145,18.76L50,84.992l15.855-0.004
		C76.414,84.988,85,76.572,85,66.229V33.758C85,23.419,76.414,15.008,65.859,15.008z"/>
	<path d="M65.859,0.008H34.141h0C18.683,0.008,5.587,10.221,1.4,24.18c-0.433,1.444-0.771,2.928-1.006,4.445
		C0.135,30.299,0,32.013,0,33.758v32.471c0,18.619,15.32,33.76,34.141,33.76L50,99.992l15.859-0.004
		c18.82,0,34.141-15.141,34.141-33.76V33.758C100,15.148,84.68,0.008,65.859,0.008z M85,66.229c0,10.344-8.586,18.76-19.145,18.76
		L50,84.992l-15.855-0.004C23.586,84.988,15,76.572,15,66.229V33.758c0-3.231,0.838-6.273,2.313-8.931
		c1.42-2.557,3.429-4.756,5.848-6.421c3.11-2.141,6.897-3.398,10.979-3.398h31.719C76.414,15.008,85,23.419,85,33.758V66.229z"/>
</g>
</g></g><g transform="translate(58,58) scale(0.87, 0.87)"><g transform="" style="fill: rgb(241, 138, 78);">
<g>
	<g id="XMLID_1_">
		<g>
			<path d="M27.351,100c-15.09,0-27.365-12.032-27.365-26.808V26.794c0-4.616,1.2-8.96,3.301-12.761
				c2.029-3.658,4.901-6.802,8.36-9.174C16.09,1.801,21.506,0,27.336,0h45.327c15.076,0,27.351,12.018,27.351,26.793v46.398
				c0,14.775-12.274,26.808-27.351,26.808H50H27.351z"/>
		</g>
		<g>
		</g>
	</g>
</g>
</g></g><g transform="translate(696,58) scale(0.87, 0.87)"><g transform="" style="fill: rgb(241, 138, 78);">
<g>
	<g id="XMLID_1_">
		<g>
			<path d="M27.351,100c-15.09,0-27.365-12.032-27.365-26.808V26.794c0-4.616,1.2-8.96,3.301-12.761
				c2.029-3.658,4.901-6.802,8.36-9.174C16.09,1.801,21.506,0,27.336,0h45.327c15.076,0,27.351,12.018,27.351,26.793v46.398
				c0,14.775-12.274,26.808-27.351,26.808H50H27.351z"/>
		</g>
		<g>
		</g>
	</g>
</g>
</g></g><g transform="translate(58,696) scale(0.87, 0.87)"><g transform="" style="fill: rgb(241, 138, 78);">
<g>
	<g id="XMLID_1_">
		<g>
			<path d="M27.351,100c-15.09,0-27.365-12.032-27.365-26.808V26.794c0-4.616,1.2-8.96,3.301-12.761
				c2.029-3.658,4.901-6.802,8.36-9.174C16.09,1.801,21.506,0,27.336,0h45.327c15.076,0,27.351,12.018,27.351,26.793v46.398
				c0,14.775-12.274,26.808-27.351,26.808H50H27.351z"/>
		</g>
		<g>
		</g>
	</g>
</g>
</g></g></g></svg>