<?xml version="1.0" encoding="utf-8"?>
<!-- Generator: Adobe Illustrator 28.3.0, SVG Export Plug-In . SVG Version: 6.00 Build 0)  -->
<svg version="1.1" id="Layer_1" xmlns="http://www.w3.org/2000/svg" xmlns:xlink="http://www.w3.org/1999/xlink" x="0px" y="0px"
	 viewBox="0 0 595.3 595.3" style="enable-background:new 0 0 595.3 595.3;" xml:space="preserve">
<style type="text/css">
	.st0{fill:#069DD8;}
	.st1{fill:#404041;}
</style>
<g>
	<path class="st0" d="M234.8,147.2c-6.3-6.3-9.4-14.3-9.4-24.1c0-10,3.1-18.1,9.4-24.3c6.3-6.2,14.3-9.2,24.1-9.2
		c9.8,0,17.8,3.1,24.1,9.2c6.3,6.2,9.4,14.3,9.4,24.3c0,9.5-3.1,17.5-9.4,23.9c-6.3,6.4-14.3,9.6-24.1,9.6
		C249.1,156.7,241.1,153.5,234.8,147.2z"/>
	<path class="st1" d="M289.6,182.9c-0.9-0.9-2-1.3-3.3-1.3h-54.7c-1.3,0-2.4,0.5-3.3,1.3c-0.9,0.9-1.3,2-1.3,3.3v57.7
		c0,1.1-0.9,1.9-1.9,1.9h-78.9c-0.5,0-0.9-0.3-1.2-0.8c-0.3-0.5-0.3-1,0-1.5l60.5-137.9c0.8-1.8,0.8-3.1,0.2-4
		c-0.6-0.9-1.9-1.3-3.7-1.3h-58.6c-2.6,0-4.4,1.2-5.4,3.5l-66.3,151c-0.8,2.3-1.2,4.2-1.2,5.8v37.4c0,1.3,0.4,2.4,1.3,3.3
		c0.9,0.9,2,1.3,3.3,1.3H225c1.1,0,1.9,0.9,1.9,1.9v13.3c0,30.5,24.8,55.3,55.3,55.3h4c1.3,0,2.4-0.4,3.3-1.3c0.9-0.9,1.3-2,1.3-3.3
		V186.2C290.9,184.9,290.5,183.8,289.6,182.9z"/>
	<path class="st1" d="M368.2,360.7c-15.5-8.2-27.6-19.8-36.2-34.7c-8.6-14.9-12.9-32.1-12.9-51.6v-79c0-19.5,4.3-36.7,12.9-51.4
		c8.6-14.8,20.7-26.3,36.2-34.5c15.5-8.2,33.6-12.3,54.1-12.3c20.3,0,38.3,3.9,53.9,11.8c15.7,7.8,27.8,18.6,36.4,32.2
		c8.6,13.6,12.9,28.6,12.9,45.1v1.9c0,1.3-0.5,2.4-1.4,3.3c-0.9,0.9-2,1.3-3.3,1.3h-54.7c-1.3,0-2.4-0.4-3.3-1.3
		c-0.9-0.9-1.4-2-1.4-3.3c0-10-3.5-18.6-10.6-25.6c-7.1-7.1-16.6-10.6-28.7-10.6c-11.8,0-21.3,3.9-28.5,11.6
		c-7.2,7.7-10.8,17.7-10.8,30.1v82.8c0,12.3,4,22.3,11.9,30.1c8,7.7,18,11.6,30.1,11.6c11.3,0,20.4-3,27.3-9.1
		c6.9-6,10.4-14.4,10.4-25.2v-10.8c0-1.3-0.6-1.9-1.9-1.9h-38.5c-1.3,0-2.4-0.4-3.3-1.3c-0.9-0.9-1.3-2-1.3-3.3v-42.4
		c0-1.3,0.4-2.4,1.3-3.3c0.9-0.9,2-1.3,3.3-1.3H521c1.3,0,2.4,0.5,3.3,1.3c0.9,0.9,1.4,2,1.4,3.3v52.4c0,19.3-4.3,36.2-12.9,50.9
		c-8.6,14.6-20.7,25.9-36.2,33.9c-15.5,8-33.6,11.9-54.1,11.9C401.8,373,383.7,368.9,368.2,360.7z"/>
	<g>
		<path class="st0" d="M111.4,504.9c-8.4,0-15.6-1.4-21.6-4.2c-6-2.8-10.7-6.8-14-12.2c-3.3-5.3-5.1-11.8-5.5-19.5
			c-0.1-3.8-0.1-7.8-0.1-12.1c0-4.3,0-8.3,0.1-12.2c0.4-7.5,2.2-13.8,5.5-19c3.3-5.2,8.1-9.2,14.1-11.9c6.1-2.7,13.2-4.1,21.4-4.1
			c6.6,0,12.5,0.8,17.6,2.4c5.1,1.6,9.4,3.8,12.9,6.5c3.5,2.7,6.1,5.7,8,9s2.8,6.5,2.9,9.6c0,0.8-0.3,1.5-0.9,2
			c-0.6,0.5-1.3,0.8-2,0.8h-19.3c-1,0-1.7-0.2-2.2-0.5c-0.5-0.3-0.9-0.8-1.3-1.4c-0.6-1.3-1.5-2.7-2.7-4.2c-1.2-1.5-2.8-2.7-4.9-3.8
			c-2.1-1.1-4.8-1.6-8.1-1.6c-4.9,0-8.8,1.3-11.8,4c-2.9,2.6-4.5,6.9-4.8,12.7c-0.3,7.6-0.3,15.2,0,23c0.3,6.2,1.9,10.6,4.9,13.3
			c3,2.7,7,4.1,12,4.1c3.3,0,6.2-0.6,8.8-1.7c2.6-1.1,4.6-2.9,6.1-5.3c1.5-2.4,2.2-5.5,2.2-9.3V467h-12.4c-1,0-1.8-0.3-2.4-1
			c-0.6-0.7-0.9-1.5-0.9-2.4v-9.8c0-1,0.3-1.8,0.9-2.4c0.6-0.7,1.4-1,2.4-1h33.3c1,0,1.8,0.3,2.4,1c0.6,0.7,0.9,1.5,0.9,2.4v15.1
			c0,7.6-1.7,14-5.2,19.4c-3.4,5.4-8.3,9.5-14.6,12.3C127.1,503.5,119.8,504.9,111.4,504.9z"/>
		<path class="st0" d="M171.6,503.6c-1,0-1.8-0.3-2.4-1c-0.6-0.7-0.9-1.4-0.9-2.3v-85.8c0-1,0.3-1.8,0.9-2.4
			c0.6-0.6,1.4-0.9,2.4-0.9h35.9c11.4,0,20.4,2.6,26.9,7.9c6.5,5.2,9.8,12.7,9.8,22.3c0,6.3-1.5,11.5-4.5,15.8
			c-3,4.3-7,7.6-11.9,9.8l18.1,32.5c0.3,0.5,0.4,1,0.4,1.5c0,0.7-0.3,1.3-0.9,1.9c-0.6,0.6-1.2,0.9-1.9,0.9H226
			c-1.7,0-2.9-0.4-3.7-1.3c-0.8-0.8-1.4-1.6-1.7-2.3L205.6,471h-13.5v29.3c0,0.9-0.3,1.7-1,2.3c-0.7,0.7-1.5,1-2.4,1H171.6z
			 M192.1,452.2h15.2c4.1,0,7.2-1,9.3-3c2.1-2,3.1-4.8,3.1-8.2c0-3.4-1-6.2-3-8.3c-2-2.1-5.1-3.2-9.4-3.2h-15.2V452.2z"/>
		<path class="st0" d="M297,504.9c-8.1,0-15.1-1.3-21.1-4c-6-2.6-10.7-6.6-14-12c-3.3-5.3-5.2-12-5.5-20c-0.1-3.8-0.1-7.6-0.1-11.4
			s0-7.6,0.1-11.4c0.4-7.9,2.2-14.6,5.6-20c3.4-5.4,8.1-9.5,14.1-12.2c6-2.7,13-4.1,20.9-4.1c8,0,15,1.4,21,4.1
			c6,2.7,10.7,6.8,14.1,12.2c3.4,5.4,5.3,12.1,5.5,20c0.2,3.8,0.3,7.6,0.3,11.4s-0.1,7.6-0.3,11.4c-0.3,8-2.1,14.7-5.5,20
			c-3.4,5.3-8.1,9.3-14.1,12C312.1,503.6,305.1,504.9,297,504.9z M297,485.9c4.7,0,8.5-1.4,11.4-4.2c2.9-2.8,4.5-7.3,4.7-13.5
			c0.2-3.9,0.3-7.5,0.3-11c0-3.4-0.1-7-0.3-10.7c-0.2-4.1-0.9-7.5-2.3-10.1c-1.4-2.6-3.2-4.5-5.6-5.7c-2.4-1.2-5.1-1.8-8.2-1.8
			c-3,0-5.7,0.6-8.1,1.8c-2.4,1.2-4.3,3.1-5.7,5.7c-1.4,2.6-2.2,6-2.4,10.1c-0.1,3.7-0.1,7.3-0.1,10.7c0,3.4,0,7.1,0.1,11
			c0.3,6.2,1.9,10.7,4.8,13.5C288.6,484.5,292.4,485.9,297,485.9z"/>
		<path class="st0" d="M392.1,504.9c-8,0-15-1.3-20.9-3.9c-5.9-2.6-10.5-6.6-13.8-12c-3.3-5.4-4.9-12.3-4.9-20.7v-53.9
			c0-1,0.3-1.8,0.9-2.4c0.6-0.6,1.4-0.9,2.4-0.9h17c1,0,1.8,0.3,2.4,0.9c0.7,0.6,1,1.4,1,2.4v53.8c0,5.7,1.4,10,4.1,12.9
			c2.7,2.9,6.6,4.3,11.6,4.3c4.9,0,8.8-1.4,11.6-4.3c2.8-2.9,4.2-7.2,4.2-12.9v-53.8c0-1,0.3-1.8,1-2.4c0.7-0.6,1.4-0.9,2.3-0.9
			h17.2c0.9,0,1.7,0.3,2.3,0.9c0.7,0.6,1,1.4,1,2.4v53.9c0,8.4-1.6,15.3-4.9,20.7c-3.3,5.4-7.8,9.4-13.7,12
			C406.9,503.6,400,504.9,392.1,504.9z"/>
		<path class="st0" d="M452.3,503.6c-1,0-1.8-0.3-2.4-1c-0.6-0.7-0.9-1.4-0.9-2.3v-85.8c0-1,0.3-1.8,0.9-2.4
			c0.6-0.6,1.4-0.9,2.4-0.9h37c7.3,0,13.7,1.1,19.1,3.4c5.4,2.2,9.6,5.6,12.7,10.1c3,4.5,4.6,10.2,4.6,17c0,6.8-1.5,12.4-4.6,16.8
			c-3,4.4-7.3,7.7-12.7,9.8c-5.4,2.1-11.8,3.2-19.1,3.2h-15.7v28.9c0,0.9-0.3,1.7-1,2.3c-0.7,0.7-1.5,1-2.4,1H452.3z M473.2,453.1
			h15.5c3.8,0,6.8-1,9-2.9c2.2-1.9,3.4-4.9,3.4-8.8c0-3.3-1-6.2-2.9-8.5c-1.9-2.3-5.1-3.4-9.5-3.4h-15.5V453.1z"/>
	</g>
</g>
</svg>
