<svg xmlns="http://www.w3.org/2000/svg" width="580" height="115" viewBox="0 0 580 115">
  <g id="ESET_sign" data-name="ESET sign">
    <g>
      <g>
        <path d="M192.415,20a26.585,26.585,0,0,1,22.822,12.4C219.135,39.171,220,50.2,220,57.5s-.865,18.334-4.763,25.1A26.588,26.588,0,0,1,192.415,95H47.586A26.586,26.586,0,0,1,24.762,82.6C20.861,75.83,20,64.807,20,57.5s.861-18.33,4.762-25.1A26.583,26.583,0,0,1,47.586,20Z" style="fill: #008da0"/>
        <path d="M143.961,53.374C144.1,48.582,145.01,47,149.9,47c4.021,0,6.257.418,6.257,6v.379H143.961m-85.583-6.01c-4.729,0-5.682,1.456-5.814,6.149H64.523v-.266c0-5.489-2.152-5.883-6.145-5.883m-16.9,10.35c0-13.548,3.017-17.934,17.1-17.934,13.155,0,17.03,3.592,17.03,17.934v1.7H52.565v.268c0,6.269.982,8.32,6.017,8.32,3.488,0,6.024-.384,6.141-4.13H75.612c-.058,5.114-1.774,7.979-4.659,9.655-2.977,1.652-7.234,2.059-12.371,2.059-13.818,0-17.1-4.724-17.1-17.867M82.954,51.15c0-11.148,7.184-11.37,17.1-11.37,6.607,0,15.409.114,15.409,8.526v1.426H105.016c-.506-2.778-2.729-2.979-4.961-2.979-6.088,0-6.35.755-6.35,3.113,0,1.986.353,3.243,6.345,3.378,12.067.272,17.106.962,17.106,10.628,0,10.147-7.756,11.709-17.1,11.709-2.29,0-4.52.014-6.571-.146-6.778-.54-10.445-3.074-10.53-10.82H94.047c.133,3.93,3.1,3.994,6.008,3.994,5.233,0,6.35-.328,6.35-3.379,0-1.822-.532-2.828-1.68-3.328a13.591,13.591,0,0,0-4.67-.465c-14.683,0-17.1-3.277-17.1-10.287m90.992-3.381h8.108V75.19h11.087V47.769h8.1V39.78H173.946Zm-40.839,9.693c0,13.092,3.244,17.754,16.988,17.754,5.137,0,9.372-.41,12.317-2.048,2.822-1.636,4.518-4.435,4.6-9.438H156.346c-.163,3.747-2.8,4.129-6.251,4.129-5.132,0-6.122-2.146-6.122-8.434v-.384h23.044V57.462c0-14.281-3.827-17.824-16.922-17.824-14.013,0-16.988,4.323-16.988,17.824M33.358,81.775c3.519,3.786,10.28,6.619,16.07,6.63h74.685V26.591H49.428c-5.79.011-12.551,2.845-16.07,6.629C27.8,39.2,26.585,48.579,26.585,57.5S27.8,75.8,33.358,81.775" style="fill: #fff"/>
      </g>
      <g>
        <path d="M207.76,15.877a7.757,7.757,0,0,0,2.4,5.747,8.113,8.113,0,0,0,11.423,0,7.866,7.866,0,0,0,2.4-5.719v-.024a7.8,7.8,0,0,0-2.4-5.68A7.713,7.713,0,0,0,215.9,7.8h0a7.661,7.661,0,0,0-5.747,2.395A7.689,7.689,0,0,0,207.76,15.877Zm8.114-6.337a5.962,5.962,0,0,1,4.425,1.834,6.185,6.185,0,0,1,1.859,4.5,6.135,6.135,0,0,1-1.859,4.5,5.964,5.964,0,0,1-4.425,1.873,6.033,6.033,0,0,1-4.464-1.873,6.154,6.154,0,0,1-1.844-4.5,6.225,6.225,0,0,1,1.844-4.5A6.027,6.027,0,0,1,215.874,9.54Z" style="fill: #008da0"/>
        <path d="M214.609,16.748h.814l2.4,2.975h2.558l-3.037-3.482a3.243,3.243,0,0,0,1.289-.9,2.075,2.075,0,0,0,.479-1.437,2.156,2.156,0,0,0-.249-1.111,2.109,2.109,0,0,0-.819-.738,2.6,2.6,0,0,0-1.021-.33,8.825,8.825,0,0,0-1.36-.072h-3.051v8.066h1.959Zm0-3.7h.637a3.738,3.738,0,0,1,.709.043,1.318,1.318,0,0,1,.522.134.751.751,0,0,1,.359.378.821.821,0,0,1,.115.426,1.628,1.628,0,0,1-.095.6,1.154,1.154,0,0,1-.312.388,1.939,1.939,0,0,1-.589.249,6.4,6.4,0,0,1-.852.048h-.479Z" style="fill: #008da0"/>
      </g>
    </g>
  </g>
  <g id="typo_DSPP" data-name="typo DSPP">
    <path d="M250,30.974h5.11c6.132,0,10.543,3.254,10.543,9.441,0,6.669-4.034,9.574-10.381,9.574H250Zm5.568,17.186c4.948,0,7.906-2.5,7.906-7.449,0-5.38-3.361-7.908-8.445-7.908h-2.85V48.16ZM269.687,35.3h2.151V49.989h-2.151Zm.027-5.809h2.124V31.97h-2.124Zm7.342,26.089.4-1.856a25.193,25.193,0,0,0,3.9.511c2.5,0,4.384-.458,4.384-3.766V48.94a4.748,4.748,0,0,1-3.363,1.264c-3.065,0-6.481-.941-6.481-7.5,0-5.244,3.146-7.772,6.993-7.772a25.024,25.024,0,0,1,4.948.564V50.9c0,3.577-2.528,5.217-6,5.217A21.919,21.919,0,0,1,277.056,55.584Zm8.661-8.445V37.026a13.316,13.316,0,0,0-2.852-.3c-3.576,0-4.868,2.717-4.868,6.051,0,4.088,1.56,5.675,4.545,5.675A5.06,5.06,0,0,0,285.717,47.139ZM292.789,35.3h2.152V49.989h-2.152Zm.027-5.809h2.125V31.97h-2.125ZM300.508,45.9V37.107h-2.151V35.3h2.151V32.292h2.071V35.3h4.6v1.8h-4.572v8.768c0,2.15.591,2.554,2.8,2.554a9.269,9.269,0,0,0,2.313-.4l.377,1.776a9.8,9.8,0,0,1-2.61.484C302.741,50.285,300.508,50.2,300.508,45.9Zm9.305.135c0-3.577,3.228-4.357,5.621-4.411l3.5-.054V39.608c0-2.34-1.156-2.8-3.765-2.8a14.137,14.137,0,0,0-3.631.672l-.457-1.668a13.521,13.521,0,0,1,4.707-.86c3.254,0,5.218,1.049,5.218,3.953v8.149c0,1.1.725,1.346,1.371,1.426l-.134,1.668h-.377c-1.211,0-2.609-.538-2.77-1.856a7.957,7.957,0,0,1-5.11,1.909C311.346,50.2,309.813,48.752,309.813,46.036Zm9.117.833V43.051l-3.523.134c-2.286.08-3.55,1.183-3.55,2.663,0,1.963,1.049,2.635,2.663,2.635A10.039,10.039,0,0,0,318.93,46.869Zm7.557-17.159h2.126V49.989h-2.126Zm11.78,19.446.754-1.776a10.307,10.307,0,0,0,4.49,1c2.126,0,4.573-.727,4.573-3.175,0-4.76-9.306-3.657-9.306-9.87,0-3.092,2.583-4.6,5.621-4.6a10.827,10.827,0,0,1,4.627.915l-.619,1.64a10.592,10.592,0,0,0-3.954-.726c-2.044,0-3.578.807-3.578,2.69,0,4.249,9.388,3.712,9.388,9.789,0,3.632-3.013,5.272-6.7,5.272A10.45,10.45,0,0,1,338.267,49.156Zm14.954-6.24c0-5.944,2.877-7.988,6.562-7.988,3.631,0,5.3,2.475,5.3,7.343v.78h-9.71c.082,4.68,2.4,5.432,5.434,5.432a17.405,17.405,0,0,0,3.63-.619l.377,1.749a14.435,14.435,0,0,1-4.653.7C355.91,50.312,353.221,48.537,353.221,42.916Zm9.628-1.452c0-2.959-1.076-4.949-3.389-4.949-2.206,0-3.793,1.668-4.061,4.949Zm4.975,1.183c0-4.76,2.69-7.719,6.886-7.719a8.4,8.4,0,0,1,4.006.834l-.645,1.667a8.1,8.1,0,0,0-3.416-.726c-2.8,0-4.653,2.125-4.653,5.864,0,3.98,1.265,5.836,5.514,5.836a16.19,16.19,0,0,0,2.824-.378l.35,1.722a12.683,12.683,0,0,1-3.389.485C370.083,50.232,367.824,48,367.824,42.647Zm14.307,2.017V35.3h2.125v8.929c0,2.314.162,4.143,2.824,4.143,1.856,0,4.035-1.425,4.707-1.829V35.3h2.044V49.989h-2.044V48.268c-1.156.727-2.877,2.044-5.245,2.044C382.427,50.312,382.131,47.192,382.131,44.664Zm16.675-9.36h2.125v1.964a4.868,4.868,0,0,1,4.2-2.286,5.85,5.85,0,0,1,1.721.242l-.377,1.8a6.439,6.439,0,0,0-1.721-.189,4.783,4.783,0,0,0-3.819,2.34V49.989h-2.125Zm10.489,0h2.152V49.989H409.3Zm.027-5.809h2.125V31.97h-2.125ZM417.014,45.9V37.107h-2.152V35.3h2.152V32.292h2.07V35.3h4.6v1.8h-4.572v8.768c0,2.15.591,2.554,2.8,2.554a9.251,9.251,0,0,0,2.313-.4L424.6,49.8a9.806,9.806,0,0,1-2.61.484C419.246,50.285,417.014,50.2,417.014,45.9Zm14.361,4.088h-1L425.619,35.3h2.313l3.2,10.489.807,2.636.86-2.581L436.431,35.3h2.18l-7.183,20.6h-2.07ZM250,63.215h7.783c4.586,0,7.723,2.625,7.723,7.241,0,4.042-3.137,7.42-9.292,7.42h-2.081v6.668H250Zm6.4,11.433c3.258,0,4.856-1.568,4.856-4.073,0-2.563-1.146-4.1-4.133-4.1h-2.986v8.174Zm12.042-6.576h4.012v2.2a5.708,5.708,0,0,1,4.434-2.534,6.723,6.723,0,0,1,2.142.272l-.574,3.318a9.17,9.17,0,0,0-2.111-.181,5.288,5.288,0,0,0-3.891,1.87V84.544h-4.012Zm11.134,8.386c0-5.55,3.319-8.808,8.206-8.808,5.491,0,8.024,3.228,8.024,8.658,0,5.671-3.5,8.6-8.266,8.6C282.439,84.906,279.572,81.708,279.572,76.458Zm12.158-.15c0-2.806-.784-5.46-4.043-5.46-3.2,0-4.072,2.654-4.072,5.49,0,3.047,1,5.34,4.133,5.34C290.946,81.678,291.73,79.294,291.73,76.308Zm8,14.148.664-3.257a28.7,28.7,0,0,0,5.007.663c2.535,0,4.255-.362,4.255-3.259v-.874a5.094,5.094,0,0,1-3.108,1.086c-3.771,0-8.025-.965-8.025-8.416,0-5.763,3.923-8.749,8.658-8.749a31.382,31.382,0,0,1,6.456.754V85.027c0,4.524-3.921,6.275-7.632,6.275A26.414,26.414,0,0,1,299.729,90.456Zm9.9-9.5V71.3a9.778,9.778,0,0,0-2.474-.331c-3.288,0-4.615,2.262-4.615,5.46,0,3.921,1.6,5.249,4.253,5.249A6.428,6.428,0,0,0,309.624,80.954Zm8.693-12.882h4.012v2.2a5.712,5.712,0,0,1,4.435-2.534,6.712,6.712,0,0,1,2.141.272l-.572,3.318a9.188,9.188,0,0,0-2.113-.181,5.291,5.291,0,0,0-3.891,1.87V84.544h-4.012ZM329.6,76.579c0-6.727,3.409-8.9,8.054-8.9,4.767,0,6.7,3.137,6.7,8.3v1.448H333.615c0,3.62,2.262,4.223,5.189,4.223a28.552,28.552,0,0,0,4.465-.664l.633,3.108a21.03,21.03,0,0,1-5.822.815C332.891,84.906,329.6,83.035,329.6,76.579Zm10.619-1.84c.03-2.473-.965-4.193-2.957-4.193-2.02,0-3.378,1.478-3.559,4.193Zm6.671,9.472.483-3.107a33.7,33.7,0,0,0,4.676.543c2.564,0,3.318-.784,3.318-1.689,0-2.534-8.3-1.539-8.3-7.361,0-3.319,3.016-4.947,6.455-4.947a15.059,15.059,0,0,1,4.947.844l-.663,2.988a17.158,17.158,0,0,0-4.284-.6c-1.841,0-2.443.814-2.443,1.509,0,2.624,8.236,1.9,8.236,7.36,0,4.133-4.133,5.159-6.879,5.159A20.463,20.463,0,0,1,346.893,84.211Zm14.906,0,.483-3.107a33.736,33.736,0,0,0,4.676.543c2.564,0,3.319-.784,3.319-1.689,0-2.534-8.3-1.539-8.3-7.361,0-3.319,3.016-4.947,6.456-4.947a15.059,15.059,0,0,1,4.947.844l-.664,2.988a17.157,17.157,0,0,0-4.283-.6c-1.841,0-2.444.814-2.444,1.509,0,2.624,8.236,1.9,8.236,7.36,0,4.133-4.133,5.159-6.879,5.159A20.463,20.463,0,0,1,361.8,84.211Zm16.627-3.74h4.525v4.073h-4.525Zm16.113-17.256h7.783c4.586,0,7.723,2.625,7.723,7.241,0,4.042-3.137,7.42-9.291,7.42h-2.082v6.668h-4.133Zm6.4,11.433c3.259,0,4.857-1.568,4.857-4.073,0-2.563-1.146-4.1-4.132-4.1h-2.987v8.174Zm12.042-6.576h4.013v2.2a5.71,5.71,0,0,1,4.434-2.534,6.718,6.718,0,0,1,2.142.272l-.573,3.318a9.184,9.184,0,0,0-2.112-.181,5.288,5.288,0,0,0-3.891,1.87V84.544h-4.013Zm11.135,8.386c0-5.55,3.319-8.808,8.206-8.808,5.491,0,8.024,3.228,8.024,8.658,0,5.671-3.5,8.6-8.265,8.6C426.977,84.906,424.111,81.708,424.111,76.458Zm12.159-.15c0-2.806-.785-5.46-4.044-5.46-3.2,0-4.071,2.654-4.071,5.49,0,3.047,1,5.34,4.132,5.34C435.485,81.678,436.27,79.294,436.27,76.308Zm8.39,3.318V71.149h-2.412V68.072h2.412V64.694h3.982v3.378h5.129v3.077h-5.129V79.6c0,1.658.544,1.869,2.323,1.869a25.633,25.633,0,0,0,3.2-.362l.453,3.2a13.377,13.377,0,0,1-3.59.574C447.888,84.876,444.66,84.936,444.66,79.626Zm11.89-3.047c0-6.727,3.409-8.9,8.054-8.9,4.767,0,6.7,3.137,6.7,8.3v1.448H460.562c0,3.62,2.262,4.223,5.189,4.223a28.552,28.552,0,0,0,4.465-.664l.633,3.108a21.03,21.03,0,0,1-5.822.815C459.838,84.906,456.55,83.035,456.55,76.579Zm10.619-1.84c.03-2.473-.965-4.193-2.957-4.193-2.02,0-3.378,1.478-3.559,4.193Zm6.762,1.478c0-5.218,3.258-8.567,8.507-8.567a10.177,10.177,0,0,1,4.978,1.056l-1.087,2.986a8.929,8.929,0,0,0-3.77-.723c-2.474,0-4.525,1.477-4.525,5.248,0,3.651,1.026,5.37,5.279,5.37a18.117,18.117,0,0,0,3.379-.422l.572,3.107a16.63,16.63,0,0,1-4.222.573C476.5,84.845,473.931,82.312,473.931,76.217Zm17.35,3.409V71.149h-2.414V68.072h2.414V64.694h3.982v3.378h5.129v3.077h-5.129V79.6c0,1.658.543,1.869,2.323,1.869a25.658,25.658,0,0,0,3.2-.362l.452,3.2a13.369,13.369,0,0,1-3.589.574C494.509,84.876,491.281,84.936,491.281,79.626Zm11.89-3.047c0-6.727,3.408-8.9,8.054-8.9,4.766,0,6.7,3.137,6.7,8.3v1.448H507.183c0,3.62,2.262,4.223,5.188,4.223a28.535,28.535,0,0,0,4.465-.664l.634,3.108a21.032,21.032,0,0,1-5.823.815C506.458,84.906,503.171,83.035,503.171,76.579Zm10.618-1.84c.03-2.473-.965-4.193-2.956-4.193-2.022,0-3.379,1.478-3.56,4.193Zm6.762,1.418c0-5.671,3.8-8.507,8.508-8.507a11.837,11.837,0,0,1,2.594.271V61.8h4.012V84.544h-4.012V83.217a5.6,5.6,0,0,1-3.921,1.6C524.564,84.815,520.551,83.367,520.551,76.157Zm11.1,4.254V71.179a9.522,9.522,0,0,0-2.535-.331c-3.257,0-4.554,2.323-4.554,5.4,0,3.921,1.719,5.218,3.861,5.218A7.561,7.561,0,0,0,531.653,80.411Zm9.356.06h4.525v4.073h-4.525Z" style="fill: #008da0"/>
  </g>
</svg>
