<svg xmlns="http://www.w3.org/2000/svg" width="360" height="200" viewBox="0 0 360 200">
  <g id="ESET_sign" data-name="ESET sign">
    <g>
      <g>
        <path d="M252.415,20a26.585,26.585,0,0,1,22.822,12.4C279.135,39.171,280,50.2,280,57.5s-.865,18.334-4.763,25.1A26.588,26.588,0,0,1,252.415,95H107.586A26.586,26.586,0,0,1,84.762,82.6C80.861,75.83,80,64.807,80,57.5s.861-18.33,4.762-25.1A26.583,26.583,0,0,1,107.586,20Z" style="fill: #008da0"/>
        <path d="M203.961,53.374C204.1,48.582,205.01,47,209.9,47c4.021,0,6.257.418,6.257,6v.379H203.961m-85.583-6.01c-4.729,0-5.682,1.456-5.814,6.149h11.959v-.266c0-5.489-2.152-5.883-6.145-5.883m-16.9,10.35c0-13.548,3.017-17.934,17.1-17.934,13.155,0,17.03,3.592,17.03,17.934v1.7H112.565v.268c0,6.269.982,8.32,6.017,8.32,3.488,0,6.024-.384,6.141-4.13h10.889c-.058,5.114-1.774,7.979-4.659,9.655-2.977,1.652-7.234,2.059-12.371,2.059-13.818,0-17.1-4.724-17.1-17.867m41.475-6.564c0-11.148,7.184-11.37,17.1-11.37,6.607,0,15.409.114,15.409,8.526v1.426H165.016c-.506-2.778-2.729-2.979-4.961-2.979-6.088,0-6.35.755-6.35,3.113,0,1.986.353,3.243,6.345,3.378,12.067.272,17.106.962,17.106,10.628,0,10.147-7.756,11.709-17.1,11.709-2.29,0-4.52.014-6.571-.146-6.778-.54-10.445-3.074-10.53-10.82h11.093c.133,3.93,3.1,3.994,6.008,3.994,5.233,0,6.35-.328,6.35-3.379,0-1.822-.532-2.828-1.68-3.328a13.591,13.591,0,0,0-4.67-.465c-14.683,0-17.1-3.277-17.1-10.287m90.992-3.381h8.108V75.19h11.087V47.769h8.1V39.78H233.946Zm-40.839,9.693c0,13.092,3.244,17.754,16.988,17.754,5.137,0,9.372-.41,12.317-2.048,2.822-1.636,4.518-4.435,4.6-9.438H216.346c-.163,3.747-2.8,4.129-6.251,4.129-5.132,0-6.122-2.146-6.122-8.434v-.384h23.044V57.462c0-14.281-3.827-17.824-16.922-17.824-14.013,0-16.988,4.323-16.988,17.824M93.358,81.775c3.519,3.786,10.28,6.619,16.07,6.63h74.685V26.591H109.428c-5.79.011-12.551,2.845-16.07,6.629C87.8,39.2,86.585,48.579,86.585,57.5S87.8,75.8,93.358,81.775" style="fill: #fff"/>
      </g>
      <g>
        <path d="M267.76,15.877a7.757,7.757,0,0,0,2.395,5.747,8.113,8.113,0,0,0,11.423,0,7.866,7.866,0,0,0,2.4-5.719v-.024a7.8,7.8,0,0,0-2.4-5.68A7.713,7.713,0,0,0,275.9,7.8h0a7.661,7.661,0,0,0-5.747,2.395A7.689,7.689,0,0,0,267.76,15.877Zm8.114-6.337a5.962,5.962,0,0,1,4.425,1.834,6.185,6.185,0,0,1,1.859,4.5,6.135,6.135,0,0,1-1.859,4.5,5.964,5.964,0,0,1-4.425,1.873,6.033,6.033,0,0,1-4.464-1.873,6.154,6.154,0,0,1-1.844-4.5,6.225,6.225,0,0,1,1.844-4.5A6.027,6.027,0,0,1,275.874,9.54Z" style="fill: #008da0"/>
        <path d="M274.609,16.748h.814l2.395,2.975h2.558l-3.037-3.482a3.243,3.243,0,0,0,1.289-.9,2.075,2.075,0,0,0,.479-1.437,2.156,2.156,0,0,0-.249-1.111,2.109,2.109,0,0,0-.819-.738,2.6,2.6,0,0,0-1.021-.33,8.825,8.825,0,0,0-1.36-.072h-3.051v8.066h1.959Zm0-3.7h.637a3.738,3.738,0,0,1,.709.043,1.318,1.318,0,0,1,.522.134.751.751,0,0,1,.359.378.821.821,0,0,1,.115.426,1.628,1.628,0,0,1-.1.6,1.154,1.154,0,0,1-.312.388,1.939,1.939,0,0,1-.589.249,6.4,6.4,0,0,1-.852.048h-.479Z" style="fill: #008da0"/>
      </g>
    </g>
  </g>
  <g id="typo_DSPP" data-name="typo DSPP">
    <path d="M87,119.49h5.174c6.208,0,10.674,3.293,10.674,9.556,0,6.753-4.085,9.694-10.511,9.694H87Zm5.637,17.4c5.01,0,8-2.532,8-7.543,0-5.445-3.4-8.005-8.55-8.005H89.206v15.548Zm14.3-13.016h2.178V138.74h-2.178Zm.027-5.881h2.151v2.5h-2.151Zm7.434,26.413.409-1.881a25.342,25.342,0,0,0,3.948.519c2.532,0,4.438-.463,4.438-3.812v-1.554a4.8,4.8,0,0,1-3.4,1.28c-3.1,0-6.563-.953-6.563-7.6,0-5.311,3.186-7.869,7.08-7.869a25.383,25.383,0,0,1,5.01.571v15.6c0,3.622-2.559,5.282-6.072,5.282A22.286,22.286,0,0,1,114.4,144.405Zm8.768-8.55V125.617a13.417,13.417,0,0,0-2.887-.3c-3.621,0-4.928,2.75-4.928,6.127,0,4.139,1.579,5.746,4.6,5.746A5.126,5.126,0,0,0,123.163,135.855Zm7.162-11.982H132.5V138.74h-2.179Zm.028-5.881H132.5v2.5h-2.151Zm7.788,16.608v-8.9h-2.178v-1.825h2.178v-3.05h2.1v3.05h4.656V125.7h-4.629v8.877c0,2.177.6,2.585,2.832,2.585a9.4,9.4,0,0,0,2.341-.408l.382,1.8a9.887,9.887,0,0,1-2.641.49C140.4,139.039,138.141,138.957,138.141,134.6Zm9.422.137c0-3.622,3.267-4.411,5.691-4.466l3.54-.054V128.23c0-2.37-1.171-2.831-3.812-2.831a14.317,14.317,0,0,0-3.676.679l-.464-1.688a13.7,13.7,0,0,1,4.766-.872c3.294,0,5.282,1.062,5.282,4v8.25c0,1.118.735,1.362,1.389,1.445l-.136,1.688h-.381c-1.226,0-2.642-.545-2.805-1.88a8.054,8.054,0,0,1-5.174,1.933C149.115,138.957,147.563,137.487,147.563,134.737Zm9.231.844v-3.866l-3.568.135c-2.314.083-3.594,1.2-3.594,2.7,0,1.987,1.062,2.669,2.7,2.669A10.161,10.161,0,0,0,156.794,135.581Zm7.652-17.371H166.6v20.53h-2.151ZM176.374,137.9l.762-1.8a10.452,10.452,0,0,0,4.548,1.009c2.15,0,4.629-.735,4.629-3.214,0-4.819-9.422-3.7-9.422-9.992,0-3.133,2.614-4.657,5.691-4.657a10.951,10.951,0,0,1,4.683.926l-.626,1.66a10.72,10.72,0,0,0-4-.735c-2.07,0-3.622.818-3.622,2.724,0,4.3,9.5,3.757,9.5,9.912,0,3.675-3.05,5.335-6.78,5.335A10.554,10.554,0,0,1,176.374,137.9Zm15.14-6.316c0-6.018,2.914-8.087,6.644-8.087,3.676,0,5.365,2.5,5.365,7.433v.79h-9.83c.081,4.738,2.423,5.5,5.5,5.5a17.74,17.74,0,0,0,3.676-.626l.381,1.769a14.638,14.638,0,0,1-4.711.707C194.237,139.066,191.514,137.269,191.514,131.579Zm9.748-1.471c0-3-1.089-5.011-3.431-5.011-2.232,0-3.839,1.688-4.111,5.011Zm5.039,1.2c0-4.821,2.723-7.815,6.971-7.815a8.47,8.47,0,0,1,4.057.845l-.654,1.688a8.182,8.182,0,0,0-3.458-.735c-2.832,0-4.711,2.149-4.711,5.934,0,4.03,1.28,5.909,5.583,5.909a16.633,16.633,0,0,0,2.859-.381l.353,1.744a12.894,12.894,0,0,1-3.43.489C208.588,138.985,206.3,136.724,206.3,131.307Zm14.487,2.041v-9.475h2.151v9.039c0,2.342.163,4.195,2.859,4.195,1.879,0,4.084-1.445,4.765-1.853V123.873h2.069V138.74h-2.069V137c-1.171.735-2.913,2.068-5.309,2.068C221.087,139.066,220.788,135.908,220.788,133.348Zm16.883-9.475h2.152v1.987a4.931,4.931,0,0,1,4.247-2.314,5.907,5.907,0,0,1,1.743.246l-.381,1.825a6.53,6.53,0,0,0-1.743-.193,4.841,4.841,0,0,0-3.866,2.37V138.74h-2.152Zm10.621,0h2.178V138.74h-2.178Zm.027-5.881h2.151v2.5h-2.151Zm7.788,16.608v-8.9h-2.178v-1.825h2.178v-3.05h2.1v3.05h4.656V125.7h-4.629v8.877c0,2.177.6,2.585,2.832,2.585a9.4,9.4,0,0,0,2.341-.408l.382,1.8a9.879,9.879,0,0,1-2.641.49C258.367,139.039,256.107,138.957,256.107,134.6Zm14.541,4.14H269.64l-4.819-14.867h2.342l3.24,10.618.817,2.669.872-2.613,3.675-10.674h2.2L270.7,144.731h-2.1ZM45,154.085h7.365c4.34,0,7.309,2.483,7.309,6.851,0,3.827-2.969,7.024-8.793,7.024h-1.97v6.308H45ZM51.052,164.9c3.083,0,4.6-1.483,4.6-3.853,0-2.427-1.085-3.883-3.911-3.883H48.911V164.9Zm11.4-6.223h3.8v2.084a5.407,5.407,0,0,1,4.2-2.4,6.371,6.371,0,0,1,2.027.257l-.542,3.141a8.689,8.689,0,0,0-2-.171,5.01,5.01,0,0,0-3.683,1.769v10.905h-3.8Zm10.537,7.937c0-5.253,3.14-8.336,7.765-8.336,5.2,0,7.593,3.054,7.593,8.193,0,5.368-3.311,8.137-7.822,8.137C75.7,174.612,72.984,171.584,72.984,166.618Zm11.505-.143c0-2.654-.743-5.167-3.826-5.167-3.026,0-3.854,2.513-3.854,5.195,0,2.884.942,5.053,3.911,5.053C83.746,171.556,84.489,169.3,84.489,166.475Zm7.569,13.39.627-3.084a27.1,27.1,0,0,0,4.739.629c2.4,0,4.025-.344,4.025-3.084V173.5a4.826,4.826,0,0,1-2.94,1.026c-3.568,0-7.594-.913-7.594-7.965,0-5.451,3.712-8.278,8.193-8.278a29.743,29.743,0,0,1,6.11.714v15.73c0,4.282-3.711,5.938-7.223,5.938A25.062,25.062,0,0,1,92.058,179.865Zm9.363-8.994v-9.136a9.352,9.352,0,0,0-2.341-.312c-3.112,0-4.368,2.139-4.368,5.167,0,3.71,1.513,4.966,4.026,4.966A6.064,6.064,0,0,0,101.421,170.871Zm8.225-12.19h3.8v2.084a5.407,5.407,0,0,1,4.2-2.4,6.371,6.371,0,0,1,2.027.257l-.543,3.141a8.675,8.675,0,0,0-2-.171,5.008,5.008,0,0,0-3.683,1.769v10.905h-3.8Zm10.68,8.05c0-6.366,3.226-8.421,7.622-8.421,4.511,0,6.338,2.97,6.338,7.851v1.369H124.122c0,3.428,2.142,4,4.911,4a27.058,27.058,0,0,0,4.225-.629l.6,2.941a19.939,19.939,0,0,1-5.509.771C123.437,174.612,120.326,172.841,120.326,166.731Zm10.048-1.741c.029-2.34-.913-3.969-2.8-3.969-1.913,0-3.2,1.4-3.369,3.969Zm6.313,8.964.457-2.94a31.829,31.829,0,0,0,4.424.515c2.427,0,3.141-.744,3.141-1.6,0-2.4-7.851-1.457-7.851-6.966,0-3.141,2.855-4.682,6.109-4.682a14.27,14.27,0,0,1,4.682.8l-.628,2.827a16.268,16.268,0,0,0-4.054-.572c-1.741,0-2.312.771-2.312,1.427,0,2.485,7.794,1.8,7.794,6.966,0,3.911-3.911,4.883-6.509,4.883A19.315,19.315,0,0,1,136.687,173.954Zm14.1,0,.457-2.94a31.842,31.842,0,0,0,4.425.515c2.427,0,3.14-.744,3.14-1.6,0-2.4-7.851-1.457-7.851-6.966,0-3.141,2.855-4.682,6.11-4.682a14.275,14.275,0,0,1,4.682.8l-.628,2.827a16.281,16.281,0,0,0-4.054-.572c-1.742,0-2.312.771-2.312,1.427,0,2.485,7.793,1.8,7.793,6.966,0,3.911-3.911,4.883-6.509,4.883A19.326,19.326,0,0,1,150.792,173.954Zm15.733-3.539h4.282v3.853h-4.282Zm15.248-16.33h7.365c4.339,0,7.308,2.483,7.308,6.851,0,3.827-2.969,7.024-8.792,7.024h-1.97v6.308h-3.911Zm6.051,10.819c3.084,0,4.6-1.483,4.6-3.853,0-2.427-1.085-3.883-3.911-3.883h-2.826V164.9Zm11.395-6.223h3.8v2.084a5.4,5.4,0,0,1,4.2-2.4,6.367,6.367,0,0,1,2.027.257l-.542,3.141a8.684,8.684,0,0,0-2-.171,5.006,5.006,0,0,0-3.682,1.769v10.905h-3.8Zm10.537,7.937c0-5.253,3.14-8.336,7.765-8.336,5.2,0,7.594,3.054,7.594,8.193,0,5.368-3.312,8.137-7.823,8.137C212.468,174.612,209.756,171.584,209.756,166.618Zm11.5-.143c0-2.654-.742-5.167-3.826-5.167-3.026,0-3.854,2.513-3.854,5.195,0,2.884.942,5.053,3.911,5.053C220.519,171.556,221.261,169.3,221.261,166.475Zm7.939,3.141v-8.022h-2.283v-2.913H229.2v-3.2h3.769v3.2h4.853v2.913h-4.853v7.992c0,1.571.514,1.772,2.2,1.772a24.072,24.072,0,0,0,3.026-.344l.429,3.026a12.623,12.623,0,0,1-3.4.542C232.255,174.582,229.2,174.64,229.2,169.616Zm11.251-2.885c0-6.366,3.226-8.421,7.622-8.421,4.511,0,6.338,2.97,6.338,7.851v1.369H244.248c0,3.428,2.141,4,4.91,4a27.041,27.041,0,0,0,4.225-.629l.6,2.941a19.953,19.953,0,0,1-5.51.771C243.563,174.612,240.451,172.841,240.451,166.731ZM250.5,164.99c.029-2.34-.914-3.969-2.8-3.969-1.912,0-3.2,1.4-3.368,3.969Zm6.4,1.4c0-4.938,3.083-8.107,8.051-8.107a9.614,9.614,0,0,1,4.71,1l-1.028,2.825a8.469,8.469,0,0,0-3.569-.684c-2.34,0-4.281,1.4-4.281,4.966,0,3.456.97,5.082,5,5.082a17.164,17.164,0,0,0,3.2-.4l.542,2.941a15.7,15.7,0,0,1-4,.543C259.324,174.555,256.9,172.157,256.9,166.389Zm16.418,3.227v-8.022h-2.284v-2.913h2.284v-3.2h3.768v3.2h4.853v2.913h-4.853v7.992c0,1.571.514,1.772,2.2,1.772a24.023,24.023,0,0,0,3.026-.344l.429,3.026a12.617,12.617,0,0,1-3.4.542C276.371,174.582,273.316,174.64,273.316,169.616Zm11.25-2.885c0-6.366,3.226-8.421,7.622-8.421,4.511,0,6.338,2.97,6.338,7.851v1.369H288.363c0,3.428,2.141,4,4.91,4a27.069,27.069,0,0,0,4.226-.629l.6,2.941a19.947,19.947,0,0,1-5.51.771C287.678,174.612,284.566,172.841,284.566,166.731Zm10.049-1.741c.029-2.34-.914-3.969-2.8-3.969-1.913,0-3.2,1.4-3.369,3.969Zm6.4,1.342c0-5.366,3.6-8.05,8.051-8.05a11.15,11.15,0,0,1,2.455.256v-5.8h3.8v21.525h-3.8v-1.256a5.291,5.291,0,0,1-3.712,1.513C304.81,174.525,301.013,173.155,301.013,166.332Zm10.506,4.026v-8.736a9,9,0,0,0-2.4-.314c-3.082,0-4.31,2.2-4.31,5.109,0,3.712,1.627,4.941,3.654,4.941A7.15,7.15,0,0,0,311.519,170.358Zm8.853.057h4.283v3.853h-4.283Z" style="fill: #008da0"/>
  </g>
</svg>
