<svg width="151" height="40" xmlns="http://www.w3.org/2000/svg" xmlns:xlink="http://www.w3.org/1999/xlink" xml:space="preserve" overflow="hidden"><defs><clipPath id="clip0"><rect x="0" y="0" width="151" height="40"/></clipPath></defs><g clip-path="url(#clip0)"><path d="M141.331 0 9.67368 0C9.30698 0 8.94468 0 8.57895 0.002 8.2728 0.004 7.96909 0.00981 7.66 0.0147 6.98851 0.0226018 6.31861 0.0816763 5.6561 0.19141 4.99452 0.303533 4.35367 0.514916 3.75522 0.81841 3.1575 1.12447 2.61134 1.52217 2.13657 1.99707 1.6593 2.47064 1.26146 3.01802 0.95835 3.61816 0.6544 4.21711 0.44364 4.85894 0.33335 5.52148 0.222011 6.18319 0.162098 6.85252 0.15415 7.52348 0.14487 7.83008 0.14389 8.1377 0.139 8.44434L0.139 31.5586C0.14389 31.8691 0.14487 32.1699 0.15415 32.4805 0.162101 33.1514 0.222013 33.8207 0.33335 34.4824 0.443336 35.1453 0.654108 35.7875 0.95835 36.3867 1.26133 36.9849 1.65922 37.5301 2.13657 38.001 2.60954 38.478 3.15605 38.876 3.75522 39.1797 4.35367 39.484 4.99445 39.6966 5.6561 39.8105 6.31872 39.9194 6.98856 39.9785 7.66 39.9873 7.96909 39.9941 8.2728 39.998 8.57895 39.998 8.94467 40 9.307 40 9.67368 40L133.461 40C133.821 40 134.186 40 134.545 39.998 134.85 39.998 135.162 39.9941 135.467 39.9873 136.137 39.9789 136.806 39.9198 137.467 39.8105 138.137 39.6895 146.63 39.4922 147.246 39.1797 147.844 38.8758 148.39 38.4778 148.863 38.001 149.339 37.5282 149.738 36.9835 150.044 36.3867 150.346 35.7871 150.555 35.1449 150.663 34.4824 150.775 33.8206 150.837 33.1515 150.849 32.4805 150.853 32.1699 150.853 31.8691 150.853 31.5586 150.861 31.1953 150.861 30.834 150.861 30.4648L150.861 9.53613C150.861 9.16992 150.861 8.80664 150.853 8.44434 150.853 8.1377 150.853 7.83008 150.849 7.52344 150.837 6.85242 150.775 6.18324 150.663 5.52144 150.555 4.85928 150.346 4.2175 150.044 3.61812 149.427 2.4152 148.448 1.43603 147.246 0.81832 146.644 0.515567 146.001 0.30424 145.337 0.19132 144.676 0.0811028 144.008 0.0220077 143.337 0.01456 143.033 0.00968 142.72 0.00382 142.415 0.00187 142.056-0.00013 141.691-0.00013 141.331-0.00013Z" stroke="#000000" stroke-width="1.33333" fill="#F0894D"/><path d="M8.58382 39.125C8.27915 39.125 7.98182 39.1211 7.67954 39.1143 7.05332 39.1061 6.42857 39.0516 5.8104 38.9512 5.23399 38.8519 4.6756 38.6673 4.15366 38.4033 3.6365 38.1415 3.16481 37.7983 2.75666 37.3867 2.3426 36.98 1.99788 36.5082 1.73615 35.9902 1.47154 35.4688 1.28841 34.9099 1.19315 34.333 1.09027 33.7131 1.03461 33.0863 1.02665 32.458 1.02031 32.2471 1.01201 31.5449 1.01201 31.5449L1.01201 8.44434C1.01201 8.44434 1.02085 7.75293 1.0267 7.5498 1.03433 6.92248 1.08966 6.29665 1.19222 5.67773 1.28767 5.09925 1.47094 4.53875 1.73569 4.01563 1.99645 3.49795 2.33926 3.02586 2.75082 2.61768 3.16193 2.20562 3.63513 1.86061 4.15317 1.59521 4.67391 1.33209 5.23125 1.14873 5.80649 1.05127 6.42669 0.949836 7.05361 0.894996 7.682 0.88721L8.58432 0.875 142.411 0.875 143.324 0.8877C143.946 0.895099 144.568 0.94945 145.182 1.05029 145.763 1.14898 146.326 1.33362 146.853 1.59814 147.891 2.13299 148.735 2.97916 149.268 4.01807 149.529 4.53758 149.709 5.09351 149.803 5.66699 149.907 6.29099 149.965 6.92174 149.977 7.5542 149.98 7.8374 149.98 8.1416 149.98 8.44434 149.988 8.81934 149.988 9.17627 149.988 9.53613L149.988 30.4648C149.988 30.8281 149.988 31.1826 149.98 31.54 149.98 31.8652 149.98 32.1631 149.976 32.4697 149.964 33.0909 149.907 33.7104 149.805 34.3232 149.712 34.9043 149.53 35.4675 149.265 35.9932 149.002 36.5056 148.659 36.9733 148.25 37.3789 147.841 37.7927 147.368 38.1379 146.85 38.4014 146.325 38.6674 145.763 38.8527 145.182 38.9512 144.564 39.0522 143.939 39.1067 143.313 39.1143 143.02 39.1211 142.713 39.125 142.415 39.125L141.331 39.127Z" stroke="#000000" stroke-width="1.33333" fill="#F0894D"/><path d="M24.9108 20.3007C24.9327 18.6042 25.822 17.0372 27.2674 16.1486 26.3514 14.8405 24.8723 14.0409 23.2762 13.9909 21.597 13.8147 19.969 14.9958 19.1133 14.9958 18.241 14.9958 16.9235 14.0084 15.5048 14.0376 13.6381 14.0979 11.9401 15.1335 11.0319 16.7655 9.09788 20.1139 10.5405 25.035 12.3931 27.7416 13.32 29.0669 14.4033 30.5474 15.8207 30.4949 17.2078 30.4373 17.7258 29.6104 19.4001 29.6104 21.0589 29.6104 21.5449 30.4949 22.9911 30.4615 24.4795 30.4373 25.4172 29.1303 26.3116 27.7924 26.9776 26.848 27.49 25.8043 27.83 24.6999 26.0623 23.9522 24.9129 22.22 24.9108 20.3007Z" stroke="#000000" stroke-width="1.33333" fill="#F0894D"/><path d="M22.1792 12.2109C22.9907 11.2367 23.3905 9.9845 23.2937 8.72027 22.0539 8.85049 20.9086 9.44305 20.0861 10.3799 19.2739 11.3042 18.8625 12.5134 18.9424 13.7413 20.1989 13.7542 21.3918 13.1902 22.1792 12.2109Z" stroke="#000000" stroke-width="1.33333" fill="#F0894D"/><path d="M39.5345 14.7017 35.8128 14.7017 35.8128 8.73486 36.7396 8.73486 36.7396 13.8496 39.5345 13.8496Z" stroke="#000000" stroke-width="1.33333" fill="#F0894D"/><path d="M44.3285 13.4858C44.0793 14.3352 43.2573 14.884 42.3773 14.7886 41.2481 14.8184 40.3085 13.9271 40.2787 12.7979 40.2758 12.6864 40.282 12.5749 40.2972 12.4643 40.1449 11.3275 40.9431 10.2824 42.0799 10.1301 42.1772 10.1171 42.2752 10.111 42.3734 10.1118 43.6263 10.1118 44.3822 10.9678 44.3822 12.3818L44.3822 12.6919 41.2025 12.6919 41.2025 12.7417C41.1473 13.3967 41.6336 13.9724 42.2886 14.0275 42.3262 14.0307 42.364 14.0321 42.4017 14.0317 42.8365 14.0839 43.2597 13.8682 43.473 13.4858ZM41.2025 12.0347 43.4769 12.0347C43.5213 11.4363 43.0721 10.9152 42.4737 10.8709 42.4387 10.8683 42.4036 10.8674 42.3685 10.8682 41.7325 10.8602 41.2105 11.3692 41.2025 12.0052 41.2024 12.015 41.2024 12.0248 41.2025 12.0347Z" stroke="#000000" stroke-width="1.33333" fill="#F0894D"/><path d="M46.7787 9.07764 46.7787 10.2192 47.7542 10.2192 47.7542 10.9678 46.7787 10.9678 46.7787 13.2832C46.7787 13.7549 46.973 13.9614 47.4154 13.9614 47.5286 13.9611 47.6418 13.9542 47.7542 13.9409L47.7542 14.6811C47.5947 14.7097 47.433 14.7249 47.2709 14.7266 46.2826 14.7266 45.889 14.3789 45.889 13.5107L45.889 10.9677 45.1742 10.9677 45.1742 10.2192 45.889 10.2192 45.889 9.07764Z" stroke="#000000" stroke-width="1.33333" fill="#F0894D"/><path d="M48.6546 12.4482C48.5424 11.2754 49.4022 10.2338 50.575 10.1216 51.7478 10.0094 52.7895 10.8691 52.9017 12.0419 52.9146 12.1771 52.9146 12.3131 52.9017 12.4482 53.0159 13.621 52.1578 14.6644 50.985 14.7786 49.8122 14.8928 48.7688 14.0346 48.6546 12.8618 48.6412 12.7243 48.6412 12.5858 48.6546 12.4482ZM49.3451 9.02832C49.3461 8.72332 49.5943 8.47695 49.8993 8.47803 50.2043 8.4791 50.4506 8.72723 50.4496 9.03222 50.4485 9.33589 50.2024 9.58172 49.8988 9.58252 49.5966 9.58611 49.3487 9.34401 49.3451 9.04179 49.345 9.0373 49.345 9.03281 49.3451 9.02832ZM51.9877 12.4482C51.9877 11.4722 51.5492 10.9014 50.7797 10.9014 50.0072 10.9014 49.5727 11.4722 49.5727 12.4482 49.5727 13.4321 50.0072 13.9985 50.7797 13.9985 51.5492 13.9985 51.9876 13.4282 51.9876 12.4482ZM51.1106 9.02832C51.1072 8.72332 51.3517 8.47329 51.6567 8.46986 51.9617 8.46642 52.2117 8.71089 52.2151 9.01589 52.2152 9.02003 52.2152 9.02418 52.2151 9.02832 52.2164 9.33332 51.9702 9.58162 51.6652 9.58292 51.3602 9.58421 51.1119 9.33802 51.1106 9.03302 51.1106 9.03145 51.1106 9.02989 51.1106 9.02832Z" stroke="#000000" stroke-width="1.33333" fill="#F0894D"/><path d="M54.1351 8.44092 55.0238 8.44092 55.0238 14.7017 54.1351 14.7017Z" stroke="#000000" stroke-width="1.33333" fill="#F0894D"/><path d="M57.6859 9.07764 57.6859 10.2192 58.6615 10.2192 58.6615 10.9678 57.6859 10.9678 57.6859 13.2832C57.6859 13.7549 57.8802 13.9614 58.3226 13.9614 58.4359 13.9611 58.549 13.9542 58.6615 13.9409L58.6615 14.6811C58.5019 14.7097 58.3402 14.7249 58.1781 14.7266 57.1898 14.7266 56.7962 14.3789 56.7962 13.5107L56.7962 10.9677 56.0814 10.9677 56.0814 10.2192 56.7962 10.2192 56.7962 9.07764Z" stroke="#000000" stroke-width="1.33333" fill="#F0894D"/><path d="M59.8753 8.44092 60.7562 8.44092 60.7562 10.9224 60.8265 10.9224C61.0685 10.3911 61.6176 10.0685 62.1995 10.1157 63.0176 10.0712 63.7168 10.6983 63.7613 11.5163 63.7664 11.6092 63.7627 11.7023 63.7503 11.7944L63.7503 14.7017 62.8606 14.7017 62.8606 12.0137C62.8606 11.2944 62.5256 10.9302 61.8978 10.9302 61.3187 10.8827 60.8108 11.3136 60.7633 11.8926 60.7585 11.9522 60.7587 12.0122 60.764 12.0718L60.764 14.7016 59.8753 14.7016Z" stroke="#000000" stroke-width="1.33333" fill="#F0894D"/><path d="M68.9325 13.4858C68.6833 14.3352 67.8613 14.884 66.9813 14.7886 65.8519 14.8184 64.9122 13.9271 64.8823 12.7977 64.8793 12.6863 64.8855 12.5748 64.9007 12.4643 64.7486 11.3273 65.5471 10.2822 66.6842 10.1301 66.7814 10.1171 66.8793 10.111 66.9774 10.1118 68.2303 10.1118 68.9862 10.9678 68.9862 12.3818L68.9862 12.6919 65.8065 12.6919 65.8065 12.7417C65.7513 13.3967 66.2376 13.9724 66.8926 14.0275 66.9302 14.0307 66.968 14.0321 67.0057 14.0317 67.4405 14.0839 67.8637 13.8682 68.077 13.4858ZM65.8065 12.0347 68.0809 12.0347C68.1253 11.4363 67.6761 10.9152 67.0777 10.8709 67.0427 10.8683 67.0076 10.8674 66.9725 10.8682 66.3365 10.8602 65.8145 11.3692 65.8065 12.0052 65.8064 12.015 65.8064 12.0248 65.8065 12.0347Z" stroke="#000000" stroke-width="1.33333" fill="#F0894D"/><path d="M71.3827 9.07764 71.3827 10.2192 72.3583 10.2192 72.3583 10.9678 71.3827 10.9678 71.3827 13.2832C71.3827 13.7549 71.577 13.9614 72.0194 13.9614 72.1326 13.9611 72.2458 13.9542 72.3582 13.9409L72.3583 14.6811C72.1987 14.7097 72.037 14.7249 71.8749 14.7266 70.8866 14.7266 70.493 14.3789 70.493 13.5107L70.493 10.9677 69.7782 10.9677 69.7782 10.2192 70.493 10.2192 70.493 9.07764Z" stroke="#000000" stroke-width="1.33333" fill="#F0894D"/><path d="M73.2577 12.4482C73.1455 11.2754 74.0052 10.2338 75.178 10.1216 76.3508 10.0094 77.3925 10.8691 77.5047 12.0419 77.5177 12.1771 77.5177 12.3131 77.5047 12.4482 77.6189 13.621 76.7608 14.6644 75.588 14.7786 74.4152 14.8928 73.3719 14.0346 73.2577 12.8618 73.2443 12.7243 73.2443 12.5858 73.2577 12.4482ZM74.9452 8.02344 75.8875 8.02344 74.7831 9.4458 73.9608 9.4458ZM76.5907 12.4482C76.5907 11.4722 76.1522 10.9014 75.3827 10.9014 74.6102 10.9014 74.1757 11.4722 74.1757 12.4482 74.1757 13.4321 74.6102 13.9985 75.3827 13.9985 76.1522 13.9985 76.5907 13.4282 76.5907 12.4482ZM76.6522 8.02344 77.5956 8.02344 76.4911 9.4458 75.6688 9.4458Z" stroke="#000000" stroke-width="1.33333" fill="#F0894D"/><path d="M80.8836 13.4282C80.8836 12.6177 81.4872 12.1504 82.5584 12.084L83.7782 12.0137 83.7782 11.625C83.7782 11.1494 83.4637 10.8809 82.8563 10.8809 82.3602 10.8809 82.0165 11.063 81.9178 11.3813L81.0575 11.3813C81.1483 10.6079 81.8758 10.1118 82.8973 10.1118 84.0262 10.1118 84.6629 10.6738 84.6629 11.625L84.6629 14.7017 83.8075 14.7017 83.8075 14.0688 83.7372 14.0688C83.4466 14.531 82.9299 14.8011 82.3846 14.7758 81.6374 14.8536 80.9687 14.3108 80.8909 13.5636 80.8863 13.5186 80.8838 13.4734 80.8836 13.4282ZM83.7782 13.0435 83.7782 12.667 82.6786 12.7373C82.0584 12.7788 81.7772 12.9897 81.7772 13.3867 81.7772 13.792 82.1288 14.0278 82.6122 14.0278 83.1955 14.0869 83.7162 13.6619 83.7752 13.0786 83.7764 13.0669 83.7774 13.0552 83.7782 13.0435Z" stroke="#000000" stroke-width="1.33333" fill="#F0894D"/><path d="M85.951 14.0981 88.4276 11.0215 88.4276 10.9512 85.9676 10.9512 85.9676 10.1987 89.49 10.1987 89.49 10.8477 87.0672 13.8789 87.0672 13.9492 89.5154 13.9492 89.5154 14.7017 85.951 14.7017Z" stroke="#000000" stroke-width="1.33333" fill="#F0894D"/><path d="M42.4466 27.1289 37.7132 27.1289 36.5765 30.4854 34.5716 30.4854 39.055 18.0669 41.138 18.0669 45.6214 30.4853 43.5824 30.4853ZM38.2035 25.5801 41.9555 25.5801 40.1059 20.1323 40.054 20.1323Z" stroke="#000000" stroke-width="1.33333" fill="#F0894D"/><path d="M55.304 25.959C55.304 28.7725 53.7981 30.5801 51.5257 30.5801 50.3511 30.6415 49.2446 30.0263 48.6771 28.9961L48.634 28.9961 48.634 33.4805 46.7757 33.4805 46.7757 21.4312 48.5745 21.4312 48.5745 22.937 48.6087 22.937C49.2015 21.9132 50.3091 21.2983 51.4915 21.3364 53.7894 21.3364 55.304 23.1528 55.304 25.959ZM53.3938 25.959C53.3938 24.1255 52.4466 22.9204 51.0013 22.9204 49.5813 22.9204 48.6263 24.1509 48.6263 25.959 48.6263 27.7832 49.5813 29.0049 51.0013 29.0049 52.4466 29.0049 53.3939 27.8086 53.3939 25.959Z" stroke="#000000" stroke-width="1.33333" fill="#F0894D"/><path d="M65.2684 25.959C65.2684 28.7725 63.763 30.5801 61.4906 30.5801 60.316 30.6415 59.2095 30.0263 58.6419 28.9961L58.599 28.9961 58.599 33.4805 56.7406 33.4805 56.7406 21.4312 58.5394 21.4312 58.5394 22.937 58.5736 22.937C59.1664 21.9132 60.274 21.2983 61.4564 21.3364 63.7542 21.3364 65.2684 23.1528 65.2684 25.959ZM63.3587 25.959C63.3587 24.1255 62.4115 22.9204 60.9661 22.9204 59.5462 22.9204 58.5911 24.1509 58.5911 25.959 58.5911 27.7832 59.5462 29.0049 60.9661 29.0049 62.4115 29.0049 63.3587 27.8086 63.3587 25.959Z" stroke="#000000" stroke-width="1.33333" fill="#F0894D"/><path d="M71.8534 27.0254C71.9911 28.2568 73.1874 29.0654 74.8221 29.0654 76.3885 29.0654 77.5155 28.2568 77.5155 27.1464 77.5155 26.1826 76.8358 25.6054 75.2264 25.2099L73.617 24.8218C71.3367 24.271 70.2781 23.2046 70.2781 21.4741 70.2781 19.3315 72.1453 17.8599 74.7957 17.8599 77.4207 17.8599 79.2195 19.3315 79.2801 21.4741L77.4041 21.4741C77.2918 20.2349 76.2674 19.4868 74.7703 19.4868 73.2732 19.4868 72.2488 20.2437 72.2488 21.3452 72.2488 22.2232 72.9031 22.7397 74.5037 23.1352L75.8719 23.4712C78.4197 24.0737 79.4773 25.0976 79.4773 26.914 79.4773 29.2373 77.6277 30.6924 74.6843 30.6924 71.9304 30.6924 70.0711 29.2715 69.9509 27.0254Z" stroke="#000000" stroke-width="1.33333" fill="#F0894D"/><path d="M83.4901 19.2886 83.4901 21.4312 85.2118 21.4312 85.2118 22.9028 83.4901 22.9028 83.4901 27.8945C83.4901 28.6699 83.8348 29.0312 84.5916 29.0312 84.796 29.0277 85.0001 29.0133 85.203 28.9883L85.203 30.4511C84.8627 30.5147 84.5168 30.5435 84.1707 30.5371 82.3377 30.5371 81.6229 29.8486 81.6229 28.0927L81.6229 22.9028 80.3065 22.9028 80.3065 21.4312 81.6229 21.4312 81.6229 19.2886Z" stroke="#000000" stroke-width="1.33333" fill="#F0894D"/><path d="M86.2079 25.959C86.2079 23.1099 87.8856 21.3198 90.5018 21.3198 93.1268 21.3198 94.7967 23.1098 94.7967 25.959 94.7967 28.8155 93.1356 30.5977 90.5018 30.5977 87.869 30.5977 86.2079 28.8154 86.2079 25.959ZM92.9032 25.959C92.9032 24.0044 92.0077 22.8511 90.5018 22.8511 88.9959 22.8511 88.1004 24.0132 88.1004 25.959 88.1004 27.9209 88.9959 29.0655 90.5018 29.0655 92.0077 29.0655 92.9032 27.9209 92.9032 25.959Z" stroke="#000000" stroke-width="1.33333" fill="#F0894D"/><path d="M96.329 21.4312 98.1015 21.4312 98.1015 22.9722 98.1445 22.9722C98.3916 21.9801 99.3006 21.2974 100.322 21.3364 100.536 21.3357 100.75 21.3589 100.959 21.4058L100.959 23.144C100.689 23.0614 100.406 23.0235 100.124 23.0317 99.0904 22.9898 98.2187 23.7937 98.1769 24.8272 98.173 24.9233 98.1765 25.0196 98.1874 25.1152L98.1874 30.4853 96.329 30.4853Z" stroke="#000000" stroke-width="1.33333" fill="#F0894D"/><path d="M109.527 27.8262C109.277 29.4697 107.677 30.5977 105.629 30.5977 102.995 30.5977 101.36 28.833 101.36 26.0019 101.36 23.1616 103.004 21.3198 105.551 21.3198 108.056 21.3198 109.631 23.0405 109.631 25.7861L109.631 26.4228 103.236 26.4228 103.236 26.5352C103.121 27.8324 104.08 28.9771 105.377 29.092 105.475 29.1007 105.573 29.1032 105.672 29.0996 106.574 29.1841 107.424 28.6662 107.763 27.8262ZM103.245 25.124 107.771 25.124C107.838 23.9233 106.919 22.8956 105.719 22.8285 105.663 22.8254 105.607 22.8245 105.551 22.8257 104.285 22.8182 103.253 23.8383 103.245 25.1042 103.245 25.1108 103.245 25.1174 103.245 25.124Z" stroke="#000000" stroke-width="1.33333" fill="#F0894D"/><path d="M111.24 26.2861 111.24 24.6069 116.886 24.6069 116.886 26.2861Z" stroke="#000000" stroke-width="1.33333" fill="#F0894D"/><path d="M120.809 28.9453 120.775 28.9453 120.775 30.4853 118.968 30.4853 118.968 18.0669 120.827 18.0669 120.827 22.937 120.87 22.937C121.44 21.9025 122.548 21.2818 123.727 21.3364 126.008 21.3364 127.497 23.1528 127.497 25.959 127.497 28.7724 126.008 30.5801 123.719 30.5801 122.514 30.6441 121.381 30.0073 120.809 28.9453ZM120.818 25.959C120.818 27.7832 121.782 29.0049 123.22 29.0049 124.648 29.0049 125.586 27.8174 125.586 25.959 125.586 24.1167 124.648 22.9204 123.22 22.9204 121.791 22.9204 120.818 24.1509 120.818 25.959Z" stroke="#000000" stroke-width="1.33333" fill="#F0894D"/><path d="M128.634 25.959C128.634 23.1099 130.311 21.3198 132.928 21.3198 135.553 21.3198 137.223 23.1098 137.223 25.959 137.223 28.8155 135.561 30.5977 132.928 30.5977 130.295 30.5977 128.634 28.8154 128.634 25.959ZM135.329 25.959C135.329 24.0044 134.433 22.8511 132.928 22.8511 131.422 22.8511 130.526 24.0132 130.526 25.959 130.526 27.9209 131.422 29.0655 132.928 29.0655 134.433 29.0655 135.329 27.9209 135.329 25.959ZM132.153 20.1402 133.995 17.5327 135.862 17.5327 133.711 20.1402Z" stroke="#000000" stroke-width="1.33333" fill="#F0894D"/><path d="M138.823 18.0669 140.682 18.0669 140.682 30.4853 138.823 30.4853Z" stroke="#000000" stroke-width="1.33333" fill="#F0894D"/></g></svg>