<svg width="456" height="121" xmlns="http://www.w3.org/2000/svg" xmlns:xlink="http://www.w3.org/1999/xlink" xml:space="preserve" overflow="hidden"><defs><clipPath id="clip0"><rect x="0" y="0" width="456" height="121"/></clipPath></defs><g clip-path="url(#clip0)"><path d="M426.381 0 28.7935 0C27.6861 0 26.592 0 25.4875 0.00603974 24.563 0.0120795 23.6458 0.0296249 22.7124 0.0443921 20.6846 0.0682544 18.6616 0.246652 16.6609 0.578033 14.663 0.916629 12.7277 1.55498 10.9205 2.47149 9.11547 3.39575 7.46614 4.59675 6.0324 6.03089 4.5911 7.46101 3.38968 9.11402 2.47433 10.9264 1.55644 12.7351 0.919972 14.6734 0.586911 16.6741 0.250682 18.6724 0.0697535 20.6937 0.0457504 22.7199 0.0177266 23.6458 0.0147672 24.5748 0 25.5008L0 95.3028C0.0147672 96.2405 0.0177266 97.1488 0.045751 98.0868 0.0697614 100.113 0.250689 102.134 0.586911 104.132 0.919054 106.134 1.55556 108.074 2.47433 109.883 3.38929 111.69 4.59086 113.336 6.0324 114.758 7.4607 116.198 9.11109 117.4 10.9205 118.318 12.7277 119.236 14.6628 119.878 16.6609 120.222 18.6619 120.551 20.6848 120.73 22.7124 120.756 23.6458 120.777 24.563 120.789 25.4875 120.789 26.592 120.795 27.6861 120.795 28.7935 120.795L402.615 120.795C403.702 120.795 404.804 120.795 405.888 120.789 406.809 120.789 407.752 120.777 408.673 120.756 410.696 120.731 412.716 120.553 414.712 120.222 416.736 119.857 442.383 119.261 444.244 118.318 446.05 117.4 447.698 116.198 449.127 114.758 450.564 113.33 451.769 111.685 452.693 109.883 453.605 108.072 454.236 106.133 454.563 104.132 454.901 102.134 455.088 100.113 455.124 98.0868 455.136 97.1488 455.136 96.2405 455.136 95.3028 455.16 94.2057 455.16 93.1146 455.16 91.9997L455.16 28.7978C455.16 27.6919 455.16 26.5949 455.136 25.5008 455.136 24.5748 455.136 23.6458 455.124 22.7198 455.088 20.6934 454.901 18.6726 454.563 16.674 454.236 14.6744 453.605 12.7363 452.693 10.9262 450.83 7.29358 447.874 4.33662 444.244 2.47122 442.426 1.55694 440.484 0.918764 438.479 0.577761 436.483 0.24492 434.465 0.0664603 432.439 0.0439693 431.521 0.0292323 430.576 0.0115359 429.655 0.00564715 428.571-0.000392583 427.468-0.000392583 426.381-0.000392583Z" stroke="#000000" stroke-width="1.33333" fill="#E97132" transform="matrix(1 0 0 1.0017 0.419762 0)"/><path d="M25.5022 118.152C24.5822 118.152 23.6843 118.141 22.7714 118.12 20.8803 118.095 18.9937 117.931 17.1269 117.627 15.3862 117.328 13.6999 116.77 12.1237 115.973 10.562 115.182 9.13755 114.146 7.90499 112.903 6.65458 111.675 5.61357 110.25 4.82318 108.686 4.02409 107.111 3.47107 105.423 3.18339 103.681 2.87272 101.809 2.70464 99.9162 2.68059 98.0189 2.66144 97.382 2.63637 95.2614 2.63637 95.2614L2.63637 25.5008C2.63637 25.5008 2.66307 23.4128 2.68074 22.7994 2.70377 20.905 2.87086 19.015 3.18059 17.146 3.46883 15.3991 4.02228 13.7064 4.82179 12.1267 5.60925 10.5633 6.64449 9.1377 7.88735 7.90505 9.12885 6.66068 10.5578 5.6188 12.1223 4.81732 13.6948 4.02274 15.3779 3.46901 17.1151 3.1747 18.988 2.86838 20.8812 2.70277 22.7789 2.67926L25.5037 2.64238 429.643 2.64238 432.4 2.68074C434.278 2.70308 436.156 2.86721 438.011 3.17174 439.765 3.46977 441.465 4.02736 443.057 4.82617 446.191 6.44135 448.74 8.99667 450.35 12.134 451.138 13.7029 451.682 15.3817 451.965 17.1136 452.28 18.998 452.455 20.9027 452.491 22.8127 452.5 23.6679 452.5 24.5866 452.5 25.5008 452.524 26.6332 452.524 27.7111 452.524 28.7978L452.524 91.9997C452.524 93.0968 452.524 94.1673 452.5 95.2466 452.5 96.2287 452.5 97.1283 452.488 98.0542 452.452 99.9301 452.28 101.801 451.972 103.652 451.691 105.406 451.141 107.107 450.341 108.695 449.547 110.242 448.511 111.654 447.276 112.879 446.04 114.129 444.612 115.171 443.048 115.967 441.462 116.77 439.765 117.33 438.011 117.627 436.144 117.932 434.257 118.097 432.367 118.12 431.482 118.141 430.555 118.152 429.655 118.152L426.381 118.158Z" stroke="#000000" stroke-width="1.33333" fill="#E97132" transform="matrix(1 0 0 1.0017 0.419762 0)"/><path d="M74.8076 61.3054C74.8737 56.1822 77.5593 51.4501 81.9242 48.7666 79.158 44.8163 74.6913 42.4017 69.8713 42.2507 64.8003 41.7186 59.884 45.2853 57.2999 45.2853 54.6656 45.2853 50.687 42.3035 46.4027 42.3917 40.7655 42.5738 35.6378 45.7012 32.8951 50.6296 27.0546 60.7413 31.4112 75.6024 37.0058 83.776 39.8049 87.7782 43.0763 92.2491 47.3567 92.0906 51.5455 91.9166 53.1098 89.4195 58.166 89.4195 63.1753 89.4195 64.643 92.0906 69.0103 91.9897 73.5051 91.9166 76.3368 87.9697 79.0378 83.9294 81.049 81.0774 82.5964 77.9256 83.6232 74.5904 78.2849 72.3325 74.8139 67.1015 74.8076 61.3054Z" stroke="#000000" stroke-width="1.33333" fill="#E97132" transform="matrix(1 0 0 1.0017 0.419762 0)"/><path d="M66.5585 36.8753C69.0091 33.9333 70.2165 30.1519 69.9241 26.3341 66.1801 26.7273 62.7214 28.5168 60.2376 31.3459 57.7849 34.1372 56.5425 37.7888 56.7838 41.4969 60.5782 41.5359 64.1806 39.8327 66.5585 36.8753Z" stroke="#000000" stroke-width="1.33333" fill="#E97132" transform="matrix(1 0 0 1.0017 0.419762 0)"/><path d="M118.969 44.3972 107.73 44.3972 107.73 26.3781 110.529 26.3781 110.529 41.824 118.969 41.824Z" stroke="#000000" stroke-width="1.33333" fill="#E97132" transform="matrix(1 0 0 1.0017 0.419762 0)"/><path d="M133.446 40.7253C132.694 43.2904 130.212 44.9477 127.554 44.6596 124.144 44.7496 121.307 42.058 121.217 38.648 121.208 38.3112 121.227 37.9745 121.272 37.6405 120.813 34.2076 123.223 31.0515 126.656 30.5916 126.95 30.5523 127.246 30.5339 127.542 30.5363 131.326 30.5363 133.609 33.1213 133.609 37.3914L133.609 38.3279 124.006 38.3279 124.006 38.4782C123.84 40.4563 125.308 42.1948 127.286 42.3612 127.4 42.3709 127.514 42.3751 127.628 42.3739 128.941 42.5315 130.219 41.8801 130.863 40.7253ZM124.006 36.3432 130.875 36.3432C131.009 34.5361 129.652 32.9625 127.845 32.8287 127.74 32.8208 127.633 32.8181 127.528 32.8205 125.607 32.7964 124.03 34.3335 124.006 36.2541 124.006 36.2837 124.006 36.3133 124.006 36.3432Z" stroke="#000000" stroke-width="1.33333" fill="#E97132" transform="matrix(1 0 0 1.0017 0.419762 0)"/><path d="M140.846 27.4133 140.846 30.8606 143.792 30.8606 143.792 33.1213 140.846 33.1213 140.846 40.1135C140.846 41.538 141.432 42.1616 142.768 42.1616 143.11 42.1607 143.452 42.1398 143.792 42.0997L143.792 44.335C143.31 44.4213 142.822 44.4673 142.332 44.4724 139.348 44.4724 138.159 43.4224 138.159 40.8005L138.159 33.121 136 33.121 136 30.8606 138.159 30.8606 138.159 27.4133Z" stroke="#000000" stroke-width="1.33333" fill="#E97132" transform="matrix(1 0 0 1.0017 0.419762 0)"/><path d="M146.511 37.5919C146.172 34.0502 148.768 30.9047 152.31 30.5659 155.852 30.2271 158.998 32.8232 159.336 36.3649 159.375 36.7732 159.375 37.1839 159.336 37.5919 159.681 41.1336 157.09 44.2845 153.548 44.6294 150.006 44.9743 146.856 42.3826 146.511 38.8409 146.47 38.4257 146.47 38.0075 146.511 37.5919ZM148.596 27.2643C148.599 26.3433 149.348 25.5993 150.27 25.6025 151.191 25.6058 151.934 26.3551 151.931 27.2761 151.928 28.1932 151.185 28.9355 150.268 28.9379 149.355 28.9488 148.607 28.2177 148.596 27.305 148.596 27.2915 148.596 27.2779 148.596 27.2643ZM156.576 37.5919C156.576 34.6445 155.252 32.9208 152.928 32.9208 150.595 32.9208 149.283 34.6445 149.283 37.5919 149.283 40.5632 150.595 42.2736 152.928 42.2736 155.252 42.2736 156.576 40.5514 156.576 37.5919ZM153.927 27.2643C153.917 26.3433 154.656 25.5882 155.577 25.5779 156.498 25.5675 157.253 26.3057 157.263 27.2268 157.263 27.2393 157.263 27.2518 157.263 27.2643 157.267 28.1854 156.523 28.9352 155.602 28.9391 154.681 28.943 153.931 28.1996 153.927 27.2785 153.927 27.2738 153.927 27.2691 153.927 27.2643Z" stroke="#000000" stroke-width="1.33333" fill="#E97132" transform="matrix(1 0 0 1.0017 0.419762 0)"/><path d="M163.061 25.4905 165.745 25.4905 165.745 44.3972 163.061 44.3972Z" stroke="#000000" stroke-width="1.33333" fill="#E97132" transform="matrix(1 0 0 1.0017 0.419762 0)"/><path d="M173.784 27.4133 173.784 30.8606 176.73 30.8606 176.73 33.1213 173.784 33.1213 173.784 40.1135C173.784 41.538 174.371 42.1616 175.707 42.1616 176.049 42.1607 176.39 42.1398 176.73 42.0997L176.73 44.335C176.248 44.4213 175.76 44.4673 175.27 44.4724 172.286 44.4724 171.097 43.4224 171.097 40.8005L171.097 33.121 168.939 33.121 168.939 30.8606 171.097 30.8606 171.097 27.4133Z" stroke="#000000" stroke-width="1.33333" fill="#E97132" transform="matrix(1 0 0 1.0017 0.419762 0)"/><path d="M180.396 25.4905 183.056 25.4905 183.056 32.9842 183.268 32.9842C183.999 31.3797 185.657 30.4055 187.415 30.5481 189.885 30.4137 191.997 32.3075 192.131 34.7777 192.146 35.0582 192.135 35.3394 192.098 35.6175L192.098 44.3972 189.411 44.3972 189.411 36.2798C189.411 34.1076 188.399 33.0078 186.503 33.0078 184.755 32.8643 183.221 34.1656 183.077 35.9141 183.063 36.0941 183.063 36.2753 183.079 36.4552L183.079 44.3969 180.396 44.3969Z" stroke="#000000" stroke-width="1.33333" fill="#E97132" transform="matrix(1 0 0 1.0017 0.419762 0)"/><path d="M207.747 40.7253C206.995 43.2904 204.512 44.9477 201.855 44.6596 198.444 44.7496 195.606 42.058 195.516 38.6474 195.507 38.3109 195.526 37.9742 195.572 37.6405 195.112 34.2069 197.524 31.0509 200.958 30.5916 201.251 30.5523 201.547 30.5339 201.843 30.5363 205.627 30.5363 207.909 33.1213 207.909 37.3914L207.909 38.3279 198.307 38.3279 198.307 38.4782C198.14 40.4563 199.609 42.1948 201.587 42.3612 201.701 42.3709 201.815 42.3751 201.929 42.3739 203.242 42.5315 204.52 41.8801 205.164 40.7253ZM198.307 36.3432 205.176 36.3432C205.31 34.5361 203.953 32.9625 202.146 32.8287 202.04 32.8208 201.934 32.8181 201.828 32.8205 199.908 32.7964 198.331 34.3335 198.307 36.2541 198.307 36.2837 198.307 36.3133 198.307 36.3432Z" stroke="#000000" stroke-width="1.33333" fill="#E97132" transform="matrix(1 0 0 1.0017 0.419762 0)"/><path d="M215.147 27.4133 215.147 30.8606 218.093 30.8606 218.093 33.1213 215.147 33.1213 215.147 40.1135C215.147 41.538 215.733 42.1616 217.069 42.1616 217.411 42.1607 217.753 42.1398 218.092 42.0997L218.093 44.335C217.611 44.4213 217.122 44.4673 216.633 44.4724 213.648 44.4724 212.46 43.4224 212.46 40.8005L212.46 33.121 210.301 33.121 210.301 30.8606 212.46 30.8606 212.46 27.4133Z" stroke="#000000" stroke-width="1.33333" fill="#E97132" transform="matrix(1 0 0 1.0017 0.419762 0)"/><path d="M220.809 37.5919C220.47 34.0502 223.066 30.9047 226.608 30.5659 230.15 30.2271 233.295 32.8232 233.634 36.3649 233.673 36.7732 233.673 37.1839 233.634 37.5919 233.979 41.1336 231.388 44.2845 227.846 44.6294 224.304 44.9743 221.154 42.3826 220.809 38.8409 220.768 38.4257 220.768 38.0075 220.809 37.5919ZM225.905 24.2297 228.75 24.2297 225.415 28.5251 222.932 28.5251ZM230.874 37.5919C230.874 34.6445 229.55 32.9208 227.226 32.9208 224.893 32.9208 223.581 34.6445 223.581 37.5919 223.581 40.5632 224.893 42.2736 227.226 42.2736 229.55 42.2736 230.874 40.5514 230.874 37.5919ZM231.06 24.2297 233.909 24.2297 230.573 28.5251 228.09 28.5251Z" stroke="#000000" stroke-width="1.33333" fill="#E97132" transform="matrix(1 0 0 1.0017 0.419762 0)"/><path d="M243.838 40.5514C243.838 38.1038 245.661 36.6926 248.896 36.4921L252.579 36.2798 252.579 35.106C252.579 33.6697 251.63 32.8589 249.795 32.8589 248.297 32.8589 247.259 33.4088 246.961 34.37L244.363 34.37C244.637 32.0345 246.834 30.5363 249.919 30.5363 253.328 30.5363 255.251 32.2335 255.251 35.106L255.251 44.3972 252.668 44.3972 252.668 42.4859 252.455 42.4859C251.578 43.8817 250.018 44.6974 248.371 44.621 246.114 44.8559 244.095 43.2167 243.86 40.9603 243.846 40.8244 243.839 40.6879 243.838 40.5514ZM252.579 39.3896 252.579 38.2527 249.259 38.465C247.386 38.5903 246.537 39.2272 246.537 40.4261 246.537 41.65 247.598 42.3621 249.058 42.3621 250.82 42.5406 252.392 41.2571 252.57 39.4956 252.574 39.4603 252.577 39.425 252.579 39.3896Z" stroke="#000000" stroke-width="1.33333" fill="#E97132" transform="matrix(1 0 0 1.0017 0.419762 0)"/><path d="M259.141 42.5744 266.62 33.2835 266.62 33.0712 259.191 33.0712 259.191 30.7987 269.828 30.7987 269.828 32.7586 262.512 41.9124 262.512 42.1247 269.905 42.1247 269.905 44.3972 259.141 44.3972Z" stroke="#000000" stroke-width="1.33333" fill="#E97132" transform="matrix(1 0 0 1.0017 0.419762 0)"/><path d="M127.763 81.9257 113.469 81.9257 110.036 92.0619 103.982 92.0619 117.521 54.5596 123.812 54.5596 137.351 92.0616 131.193 92.0616ZM114.95 77.2485 126.28 77.2485 120.695 60.7969 120.538 60.7969Z" stroke="#000000" stroke-width="1.33333" fill="#E97132" transform="matrix(1 0 0 1.0017 0.419762 0)"/><path d="M166.591 78.3927C166.591 86.8891 162.043 92.3479 155.181 92.3479 151.634 92.5333 148.292 90.6755 146.579 87.5644L146.448 87.5644 146.448 101.107 140.837 101.107 140.837 64.7194 146.269 64.7194 146.269 69.2667 146.372 69.2667C148.162 66.175 151.507 64.318 155.078 64.4331 162.017 64.4331 166.591 69.9184 166.591 78.3927ZM160.822 78.3927C160.822 72.8558 157.962 69.2166 153.597 69.2166 149.309 69.2166 146.425 72.9325 146.425 78.3927 146.425 83.9016 149.309 87.591 153.597 87.591 157.962 87.591 160.823 83.9783 160.823 78.3927Z" stroke="#000000" stroke-width="1.33333" fill="#E97132" transform="matrix(1 0 0 1.0017 0.419762 0)"/><path d="M196.682 78.3927C196.682 86.8891 192.136 92.3479 185.274 92.3479 181.727 92.5333 178.385 90.6755 176.671 87.5644L176.541 87.5644 176.541 101.107 170.929 101.107 170.929 64.7194 176.361 64.7194 176.361 69.2667 176.465 69.2667C178.255 66.175 181.6 64.318 185.17 64.4331 192.109 64.4331 196.682 69.9184 196.682 78.3927ZM190.915 78.3927C190.915 72.8558 188.055 69.2166 183.69 69.2166 179.402 69.2166 176.518 72.9325 176.518 78.3927 176.518 83.9016 179.402 87.591 183.69 87.591 188.055 87.591 190.915 83.9783 190.915 78.3927Z" stroke="#000000" stroke-width="1.33333" fill="#E97132" transform="matrix(1 0 0 1.0017 0.419762 0)"/><path d="M216.568 81.6131C216.984 85.3318 220.596 87.7737 225.533 87.7737 230.263 87.7737 233.667 85.3318 233.667 81.9785 233.667 79.068 231.614 77.3249 226.754 76.1306L221.894 74.9585C215.008 73.2952 211.811 70.0748 211.811 64.8489 211.811 58.3786 217.45 53.9345 225.453 53.9345 233.381 53.9345 238.813 58.3786 238.996 64.8489L233.33 64.8489C232.991 61.1067 229.898 58.8476 225.377 58.8476 220.856 58.8476 217.762 61.1333 217.762 64.4597 217.762 67.1111 219.738 68.6709 224.572 69.8652L228.703 70.8799C236.397 72.6994 239.591 75.7914 239.591 81.2767 239.591 88.2928 234.006 92.687 225.117 92.687 216.801 92.687 211.186 88.3961 210.823 81.6131Z" stroke="#000000" stroke-width="1.33333" fill="#E97132" transform="matrix(1 0 0 1.0017 0.419762 0)"/><path d="M251.709 58.249 251.709 64.7194 256.909 64.7194 256.909 69.1634 251.709 69.1634 251.709 84.2377C251.709 86.5793 252.75 87.6704 255.036 87.6704 255.653 87.6598 256.269 87.6163 256.882 87.5408L256.882 91.9583C255.854 92.1504 254.81 92.2373 253.765 92.218 248.229 92.218 246.071 90.1388 246.071 84.8362L246.071 69.1634 242.095 69.1634 242.095 64.7194 246.071 64.7194 246.071 58.249Z" stroke="#000000" stroke-width="1.33333" fill="#E97132" transform="matrix(1 0 0 1.0017 0.419762 0)"/><path d="M259.917 78.3927C259.917 69.7888 264.983 64.383 272.884 64.383 280.811 64.383 285.854 69.7885 285.854 78.3927 285.854 87.019 280.837 92.401 272.884 92.401 264.933 92.401 259.917 87.0187 259.917 78.3927ZM280.136 78.3927C280.136 72.4901 277.431 69.0073 272.884 69.0073 268.336 69.0073 265.632 72.5167 265.632 78.3927 265.632 84.3174 268.336 87.774 272.884 87.774 277.431 87.774 280.136 84.3174 280.136 78.3927Z" stroke="#000000" stroke-width="1.33333" fill="#E97132" transform="matrix(1 0 0 1.0017 0.419762 0)"/><path d="M290.481 64.7194 295.834 64.7194 295.834 69.373 295.964 69.373C296.71 66.377 299.455 64.3153 302.539 64.4331 303.186 64.431 303.832 64.5011 304.463 64.6427L304.463 69.8918C303.648 69.6424 302.793 69.5279 301.941 69.5527 298.82 69.4262 296.188 71.8538 296.061 74.9749 296.05 75.2651 296.06 75.5559 296.093 75.8446L296.093 92.0616 290.481 92.0616Z" stroke="#000000" stroke-width="1.33333" fill="#E97132" transform="matrix(1 0 0 1.0017 0.419762 0)"/><path d="M330.337 84.0314C329.582 88.9946 324.751 92.401 318.566 92.401 310.612 92.401 305.674 87.0718 305.674 78.5223 305.674 69.945 310.639 64.383 318.33 64.383 325.895 64.383 330.651 69.5793 330.651 77.8706L330.651 79.7934 311.339 79.7934 311.339 80.1328C310.992 84.0502 313.888 87.507 317.805 87.854 318.101 87.8803 318.397 87.8878 318.696 87.8769 321.42 88.1321 323.987 86.5681 325.01 84.0314ZM311.366 75.8712 325.034 75.8712C325.237 72.2452 322.461 69.1417 318.838 68.939 318.669 68.9297 318.499 68.927 318.33 68.9306 314.507 68.9079 311.391 71.9885 311.366 75.8114 311.366 75.8313 311.366 75.8512 311.366 75.8712Z" stroke="#000000" stroke-width="1.33333" fill="#E97132" transform="matrix(1 0 0 1.0017 0.419762 0)"/><path d="M335.51 79.3805 335.51 74.3096 352.56 74.3096 352.56 79.3805Z" stroke="#000000" stroke-width="1.33333" fill="#E97132" transform="matrix(1 0 0 1.0017 0.419762 0)"/><path d="M364.407 87.411 364.305 87.411 364.305 92.0616 358.848 92.0616 358.848 54.5596 364.462 54.5596 364.462 69.2667 364.592 69.2667C366.313 66.1427 369.659 64.2682 373.219 64.4331 380.108 64.4331 384.604 69.9184 384.604 78.3927 384.604 86.8888 380.108 92.3479 373.195 92.3479 369.556 92.5411 366.135 90.6181 364.407 87.411ZM364.435 78.3927C364.435 83.9016 367.346 87.591 371.688 87.591 376.001 87.591 378.833 84.0049 378.833 78.3927 378.833 72.8292 376.001 69.2166 371.688 69.2166 367.373 69.2166 364.435 72.9325 364.435 78.3927Z" stroke="#000000" stroke-width="1.33333" fill="#E97132" transform="matrix(1 0 0 1.0017 0.419762 0)"/><path d="M388.038 78.3927C388.038 69.7888 393.102 64.383 401.005 64.383 408.932 64.383 413.976 69.7885 413.976 78.3927 413.976 87.019 408.957 92.401 401.005 92.401 393.054 92.401 388.038 87.0187 388.038 78.3927ZM408.256 78.3927C408.256 72.4901 405.55 69.0073 401.005 69.0073 396.457 69.0073 393.751 72.5167 393.751 78.3927 393.751 84.3174 396.457 87.774 401.005 87.774 405.55 87.774 408.256 84.3174 408.256 78.3927ZM398.665 60.8207 404.227 52.9464 409.866 52.9464 403.37 60.8207Z" stroke="#000000" stroke-width="1.33333" fill="#E97132" transform="matrix(1 0 0 1.0017 0.419762 0)"/><path d="M418.807 54.5596 424.421 54.5596 424.421 92.0616 418.807 92.0616Z" stroke="#000000" stroke-width="1.33333" fill="#E97132" transform="matrix(1 0 0 1.0017 0.419762 0)"/></g></svg>